<svg width="92" height="90" viewBox="0 0 92 90" fill="none" xmlns="http://www.w3.org/2000/svg">
    <path d="M41.7285 14.0967C42.0215 14.3896 42.1875 14.7852 42.1875 15.2002V45.3125C42.1875 46.1768 41.4893 46.875 40.625 46.875H9.375C8.51074 46.875 7.8125 46.1768 7.8125 45.3125V4.6875C7.8125 3.82324 8.51074 3.125 9.375 3.125H30.1123C30.5273 3.125 30.9277 3.29102 31.2207 3.58398L41.7285 14.0967V14.0967ZM38.584 15.918L29.3945 6.72852V15.918H38.584Z" fill="#0FA958" />
    <path d="M62.7285 24.0967C63.0215 24.3896 63.1875 24.7852 63.1875 25.2002V55.3125C63.1875 56.1768 62.4893 56.875 61.625 56.875H30.375C29.5107 56.875 28.8125 56.1768 28.8125 55.3125V14.6875C28.8125 13.8232 29.5107 13.125 30.375 13.125H51.1123C51.5273 13.125 51.9277 13.291 52.2207 13.584L62.7285 24.0967V24.0967ZM59.584 25.918L50.3945 16.7285V25.918H59.584Z" fill="#699BF7" />
    <path d="M83.7285 34.0967C84.0215 34.3896 84.1875 34.7852 84.1875 35.2002V65.3125C84.1875 66.1768 83.4893 66.875 82.625 66.875H51.375C50.5107 66.875 49.8125 66.1768 49.8125 65.3125V24.6875C49.8125 23.8232 50.5107 23.125 51.375 23.125H72.1123C72.5273 23.125 72.9277 23.291 73.2207 23.584L83.7285 34.0967V34.0967ZM80.584 35.918L71.3945 26.7285V35.918H80.584Z" fill="#EE2F2F" />
    <path d="M81.9375 36.1406H46.8789L35.4238 25.1836C35.2781 25.0471 35.0864 24.9705 34.8867 24.9688H10.0625C8.33398 24.9688 6.9375 26.3652 6.9375 28.0938V85.9062C6.9375 87.6348 8.33398 89.0312 10.0625 89.0312H81.9375C83.666 89.0312 85.0625 87.6348 85.0625 85.9062V39.2656C85.0625 37.5371 83.666 36.1406 81.9375 36.1406Z" fill="#D27C2C" />
</svg>
    