<svg width="300" height="294" viewBox="0 0 300 294" fill="none" xmlns="http://www.w3.org/2000/svg">
    <g clip-path="url(#clip0_11_74)">
        <path d="M60.237 52.1461L60.4958 52.0944C63.5255 51.4747 66.4864 51.819 69.3439 52.9552C69.8603 53.0584 69.8948 53.3683 69.5848 53.8847L69.0645 54.7629C67.8909 56.7511 66.979 58.348 65.8261 60.3155L65.168 61.4371C64.9269 61.8368 64.8052 61.8919 64.0763 61.8446L63.9731 61.8376C62.9363 61.7728 62.2044 61.7689 61.2321 62.0844L61.0467 62.1474C57.8106 63.2492 56.0203 65.659 55.3319 68.8953C54.5055 72.7512 55.5384 76.1941 58.3614 78.9483C61.15 81.6679 65.3158 82.0468 68.4143 79.7056C71.0653 77.6744 72.2014 74.8858 71.9949 71.5807C71.926 70.892 71.7883 70.2035 71.6504 69.3774L65.0061 76.0217C64.2831 76.7447 63.6636 76.4693 63.3193 75.643L63.1576 75.2426C62.5706 73.7707 61.7772 71.6048 61.3768 70.3131L61.2919 70.0337C61.2046 69.7083 61.1675 69.1878 61.6322 68.723L72.7117 57.6436C71.6328 55.5695 70.9505 53.2725 70.6178 50.7861C69.8261 44.9678 71.1342 40.2167 74.5083 35.3969C77.4001 31.2654 81.0496 28.3046 86.076 27.3407C90.6549 26.4799 94.8553 27.3063 98.6078 30.1636C103.841 34.2263 106.285 39.356 106.32 45.794C106.354 50.3729 105.011 54.6076 102.464 58.4635C101.706 59.5652 100.811 60.5292 100.019 61.5275C96.8175 64.5916 93.0649 66.5541 88.5892 66.8984C85.4289 67.128 82.4608 66.495 79.7841 64.9787C80.1985 66.2073 80.4954 67.4725 80.6708 68.7573C81.4627 74.5069 80.2577 79.7742 76.7118 84.4222C73.7853 88.2436 69.9981 90.7223 65.1782 91.4109C60.7026 92.0306 56.709 90.929 53.1629 88.1406C48.9627 84.8353 46.6904 80.3596 46.0019 75.1266C45.2446 69.4803 46.4495 64.213 49.6858 59.5308C52.2876 55.7799 55.6854 53.0906 60.2372 52.1459L60.237 52.1461ZM81.5481 40.7019L81.4625 40.8367C78.9838 44.7614 78.9493 48.8582 81.4281 52.8518C83.4937 56.157 87.5218 57.5686 91.1024 56.1914C93.8221 55.1242 95.6124 53.1273 96.5075 50.3731C97.8159 46.2417 97.0928 42.5579 94.3042 39.4249C93.8222 39.012 93.4778 38.6675 93.0646 38.3922C89.082 35.6349 84.0893 36.7818 81.5481 40.7019V40.7019ZM47.1379 87.6928C47.2756 87.5551 47.4478 87.5895 47.5855 87.7272L48.3429 88.6224C48.4805 88.7601 48.4462 89.0011 48.3429 89.1044L40.8032 96.5753C40.6655 96.713 40.5278 96.6441 40.4933 96.472L40.1146 95.1293C40.0802 94.9571 40.1146 94.7161 40.2523 94.5784L47.1379 87.6928V87.6928ZM44.7279 83.7681C44.8656 83.6304 45.0378 83.6648 45.1067 83.8025L45.6575 84.9043C45.7608 85.0764 45.6919 85.2829 45.5542 85.4206L29.3043 101.74C29.1666 101.877 29.0633 101.843 29.0288 101.671L28.8223 100.018C28.7879 99.846 28.8911 99.605 29.0288 99.4673L44.7279 83.7681ZM43.3508 78.8105C43.4885 78.6728 43.6262 78.7417 43.6608 78.9138L43.9705 80.3942C44.0049 80.5664 43.9361 80.8418 43.8328 80.9451L31.3356 93.3733C31.1977 93.5111 31.0946 93.4767 31.06 93.3047L30.8536 91.6522C30.8192 91.48 30.9223 91.239 31.06 91.1013L43.3508 78.8105Z" fill="#00ACD7" />
    </g>
    <g clip-path="url(#clip1_11_74)">
        <path d="M224.438 226.438C224.939 225.937 225.563 225.577 226.247 225.394L233.474 223.542C234.531 223.243 234.334 223.707 234.189 224.01C233.691 224.953 233.312 225.954 233.063 226.991C233.034 227.07 232.985 227.14 232.922 227.195C232.858 227.25 232.782 227.287 232.7 227.304L227.139 228.72C227.04 228.751 226.949 228.805 226.876 228.879C226.802 228.952 226.748 229.042 226.717 229.142L220.966 250.596C220.941 250.698 220.942 250.805 220.97 250.906C220.998 251.007 221.052 251.099 221.126 251.173L236.832 266.879C236.908 266.954 237.001 267.009 237.104 267.038C237.206 267.067 237.315 267.068 237.418 267.043L258.866 261.285C258.966 261.257 259.058 261.204 259.131 261.13C259.205 261.056 259.258 260.965 259.286 260.865L265.034 239.422C265.06 239.319 265.06 239.211 265.032 239.108C265.004 239.005 264.951 238.911 264.876 238.835L249.177 223.136C249.103 223.062 249.01 223.009 248.909 222.983C248.808 222.957 248.701 222.958 248.6 222.986L242.716 224.564C239.684 225.575 239.636 228.004 240.832 229.2L256.332 244.7C256.438 244.806 256.497 244.949 256.497 245.098C256.497 245.247 256.438 245.39 256.332 245.496L254.609 247.219C254.503 247.325 254.36 247.384 254.211 247.384C254.062 247.384 253.919 247.325 253.813 247.219L238.312 231.718C235.614 229.02 235.538 226.006 238.097 223.447C239.182 222.324 240.564 221.533 242.081 221.166L247.708 219.641C248.395 219.46 249.117 219.462 249.803 219.647C250.489 219.832 251.114 220.194 251.616 220.696L267.316 236.395C267.82 236.897 268.183 237.523 268.369 238.21C268.555 238.897 268.557 239.62 268.375 240.308L262.625 261.766C262.426 262.444 262.061 263.061 261.561 263.561C261.061 264.061 260.444 264.426 259.766 264.625L238.309 270.374C237.623 270.555 236.901 270.554 236.215 270.369C235.53 270.185 234.904 269.824 234.402 269.322L218.696 253.617C218.195 253.113 217.833 252.488 217.649 251.802C217.464 251.116 217.461 250.394 217.642 249.707L223.391 228.25C223.575 227.564 223.936 226.94 224.438 226.438V226.438Z" fill="#83CD29" />
        <path d="M242.991 239.831C243.096 239.936 243.155 240.079 243.155 240.228C243.155 240.378 243.096 240.521 242.991 240.626L241.231 242.385C241.137 242.479 241.013 242.536 240.88 242.547C240.748 242.558 240.616 242.521 240.507 242.444C238.451 240.918 236.753 240.81 233.156 244.407C230.291 247.272 229.718 249.142 231.239 250.663C232.115 251.539 233.112 251.844 238.002 247.827C242.093 244.472 245.219 242.995 248.195 245.971C250.939 248.715 250.263 252.666 246.385 256.544C242.027 260.902 238.357 261.546 234.838 258.574C234.78 258.524 234.732 258.462 234.699 258.393C234.665 258.324 234.646 258.249 234.642 258.172C234.639 258.095 234.651 258.019 234.678 257.947C234.706 257.875 234.747 257.81 234.801 257.754L236.572 255.983C236.662 255.896 236.779 255.841 236.904 255.827C237.029 255.814 237.155 255.842 237.262 255.909C239.569 257.37 241.206 256.936 243.99 254.152C247.119 251.023 246.393 249.57 245.576 248.753C244.587 247.764 243.868 247.905 239.086 251.571C234.353 255.198 231.585 256.402 228.647 253.464C225.682 250.5 226.456 246.331 230.767 242.021C236.718 236.053 240.698 237.538 242.991 239.831V239.831Z" fill="#83CD29" />
    </g>
    <g clip-path="url(#clip2_11_74)">
        <path d="M31.3246 210.903C31.7294 213.143 34.4151 216.516 37.2423 218.426C35.2242 220.995 34.4848 224.268 34.9109 228.249L35.2604 230.433L37.4606 229.996C40.2821 229.377 43.241 227.52 45.3692 225.062C46.1165 224.204 47.2744 222.496 47.7095 220.408C48.9392 220.72 51.11 221.745 53.2031 223.838L93.0289 263.664L93.5977 263.315C96.2765 261.408 103.443 254.241 104.43 244.221C105.2 236.62 102.253 229.431 95.588 222.766C81.1562 208.334 63.5325 204.585 45.9645 212.128C44.0388 210.087 39.74 205.903 33.2916 208.055C33.1219 208.114 32.7825 208.234 31.5372 208.708L30.8582 208.946L31.3246 210.903ZM40.5513 252.464L46.6103 258.523L52.3434 252.79L46.2844 246.731L40.5513 252.464ZM47.4311 245.585L53.49 251.644L59.2231 245.91L53.1641 239.852L47.4308 245.585L47.4311 245.585ZM54.592 252.745L60.6509 258.804L66.384 253.071L60.325 247.012L54.5917 252.746L54.592 252.745ZM61.7529 259.906L67.812 265.966L73.5451 260.232L67.4859 254.173L61.7526 259.907L61.7529 259.906ZM75.7935 260.188L81.8526 266.247L87.5857 260.514L81.5268 254.455L75.7935 260.188L75.7935 260.188ZM68.6326 253.027L74.6918 259.086L80.4248 253.353L74.3657 247.294L68.6324 253.027L68.6326 253.027ZM61.4717 245.866L67.5306 251.925L73.2637 246.192L67.2048 240.133L61.4715 245.866L61.4717 245.866ZM54.3106 238.705L60.37 244.764L66.1031 239.031L60.0436 232.972L54.3103 238.705L54.3106 238.705ZM47.1497 231.544L53.2091 237.603L58.9422 231.87L52.8828 225.811L47.1495 231.544L47.1497 231.544Z" fill="#2396ED" />
    </g>
    <g clip-path="url(#clip3_11_74)">
        <path d="M246.447 50.6586L244.503 52.7799L240.437 54.0174L233.896 56.1387L229.83 59.3207L226.295 66.0382L227.886 71.695L233.366 77.1751L242.381 78.4125L250.778 74.6118L251.927 62.8562L254.049 57.7297L246.447 50.6586Z" fill="#ECEFF1" />
        <path d="M253.96 68.2478C254.579 64.8007 254.667 62.4142 256.612 59.2322C258.556 56.0502 258.645 57.5528 260.324 54.8128C261.208 53.3986 261.562 52.1612 261.738 51.1005C261.827 49.9514 261.562 48.9792 261.296 48.5372C260.943 47.2998 259.794 44.7365 256.258 43.6759C252.634 42.5268 250.248 45.4436 245.298 51.2773C244.945 51.6308 244.414 51.9844 243.884 52.1612C242.735 52.6031 241.409 52.6915 240.26 52.7799C238.757 53.045 237.255 53.3102 235.841 53.8405C232.747 54.8128 229.211 56.4038 228.504 57.6412C229.035 57.9948 226.118 72.0485 225.941 72.2253C226.383 72.4905 227.886 73.9931 229.211 75.3189C231.156 77.0867 232.305 78.0589 233.454 79.9151C233.719 79.6499 233.896 79.2964 234.161 79.0312C234.691 78.5009 235.222 78.1473 235.929 77.617C236.459 77.2634 236.99 76.9099 237.608 76.468C235.929 76.3796 233.454 75.6725 231.686 74.435C230.095 73.3744 228.328 70.7227 228.593 68.3362C228.681 68.4246 228.858 68.6014 229.035 68.6014C229.388 68.7782 229.742 68.9549 230.007 68.8666C230.714 68.6898 230.979 68.0711 231.068 67.6291C231.156 67.1872 230.802 64.8891 230.714 63.74C230.626 62.591 230.537 61.9723 230.537 61.2652V59.8509C230.537 59.4974 230.626 59.2322 230.626 59.0554C230.891 58.4367 231.333 57.818 232.128 57.1993C233.189 56.3154 234.338 55.8735 235.664 55.4315C236.194 55.2548 237.343 54.9896 237.343 54.9896C237.343 54.9896 232.128 57.1993 231.775 59.1438C231.775 59.1438 233.012 58.0832 234.515 57.2877C235.575 56.7574 237.166 56.0502 238.315 55.9619C239.464 55.8735 243.088 54.9012 244.591 53.5754C245.21 52.9567 245.917 52.4263 246.359 51.9844C246.359 51.2773 253.43 56.5806 252.811 57.9064C252.546 58.3483 250.601 62.7678 249.629 65.1542C249.187 66.3033 248.922 67.4523 248.303 68.6014C247.596 69.8388 246.447 71.3414 245.121 72.6673C244.856 72.9324 244.414 73.3744 243.884 73.7279C244.061 73.9047 251.22 73.6395 250.248 66.4801C250.248 66.4801 251.574 70.104 249.364 72.4905C247.596 74.435 245.298 75.1421 244.856 75.2305C244.945 75.3189 245.917 77.8822 246.005 77.9706C246.359 78.3241 247.331 78.766 247.331 78.766C247.685 78.5893 248.657 78.1473 248.922 77.8822C251.574 76.468 253.341 71.695 253.96 68.2478V68.2478Z" fill="#263238" />
        <path d="M248.568 51.1889C249.203 51.8235 250.509 51.5465 251.485 50.5702C252.462 49.5939 252.739 48.288 252.104 47.6534C251.469 47.0188 250.163 47.2958 249.187 48.2721C248.211 49.2484 247.934 50.5543 248.568 51.1889Z" fill="#ECEFF1" />
        <path d="M252.369 55.3431C253.199 56.173 254.782 55.9356 255.905 54.8128C257.027 53.69 257.265 52.1071 256.435 51.2773C255.605 50.4474 254.022 50.6848 252.899 51.8076C251.777 52.9303 251.539 54.5133 252.369 55.3431Z" fill="#ECEFF1" />
        <path d="M250.858 50.1844C251.366 49.5298 251.468 48.7591 251.086 48.4629C250.704 48.1667 249.983 48.4573 249.475 49.1119C248.967 49.7666 248.865 50.5373 249.247 50.8335C249.629 51.1296 250.35 50.8391 250.858 50.1844Z" fill="#212121" />
        <path d="M252.811 54.7245C253.299 55.2126 254.209 55.0939 254.844 54.4593C255.479 53.8247 255.597 52.9145 255.109 52.4264C254.621 51.9382 253.711 52.0569 253.076 52.6915C252.442 53.3261 252.323 54.2363 252.811 54.7245Z" fill="#212121" />
        <path d="M246.27 84.7765C246.094 84.2461 245.74 83.3622 246.005 82.0364C246.182 81.3293 247.508 80.1803 247.596 79.208C247.685 78.5893 247.154 78.4125 247.066 78.3241C246.094 77.7054 243 77.0867 243.177 74.435C243.177 74.0815 243.177 73.5511 242.735 73.1092C242.293 72.6673 241.939 72.6673 241.409 72.844C240.879 73.0208 240.614 73.286 239.73 74.1699C239.023 74.877 238.227 75.6725 237.52 76.2028C235.841 77.5286 234.691 78.1473 233.808 79.0312C232.835 80.0035 232.482 80.8874 232.57 81.5061C232.57 82.0364 232.835 82.6551 233.808 83.6274C234.78 84.5997 235.752 84.8648 236.99 84.8648C237.873 84.8648 238.404 85.0416 240.525 85.3952C242.116 85.7487 244.414 86.4558 244.945 86.4558C245.298 86.4558 245.652 86.6326 246.182 86.1023C246.624 85.6603 246.447 85.13 246.27 84.7765V84.7765ZM228.239 67.2756C228.769 64.9775 228.946 64.6239 229.211 63.1213C229.565 61.7071 230.095 58.8787 229.388 58.1716C228.858 57.6412 228.328 57.6412 227.62 57.6412C226.913 57.6412 225.764 58.0832 224.704 57.9064C223.731 57.818 222.317 56.227 221.433 56.4038C220.549 56.5806 220.461 58.0832 219.135 59.409C218.605 59.9393 217.809 59.8509 217.367 60.1161C216.837 60.4697 216.483 60.6464 216.307 61.1768C216.13 62.0607 216.395 62.6794 218.782 66.3033C220.019 68.2478 220.638 70.6343 221.522 71.695C222.406 72.7556 224.173 74.3466 226.56 71.9601C228.062 70.6343 227.62 69.4853 228.239 67.2756V67.2756ZM245.917 52.9567C245.74 52.0728 245.652 51.2773 246.182 50.7469C246.712 50.2166 247.243 50.3934 248.215 50.4818C248.392 50.4818 250.248 50.5702 251.22 51.5424C252.192 52.5147 252.723 54.2825 252.988 54.9012C253.607 55.8735 254.225 56.8457 253.518 57.3761C252.546 58.1716 252.281 58.26 250.955 57.818C250.159 57.3761 248.038 57.1993 247.243 56.4038C246.889 56.0502 246.359 55.5199 246.094 55.078C245.917 54.7244 245.917 53.8405 245.917 52.9567Z" fill="#FFC107" />
        <path d="M246.447 52.0728C246.447 52.4264 246.536 52.8683 246.712 53.2219C246.801 53.487 246.978 53.8406 246.978 53.8406L247.773 54.6361C248.215 55.078 249.01 55.52 249.983 55.7851C250.867 56.1387 251.132 56.0503 251.75 56.3155C252.458 56.4922 253.165 56.669 253.076 56.4038C252.988 56.1387 252.723 56.0503 251.75 55.7851C250.867 55.6083 250.248 55.3432 249.452 55.078C249.099 54.9012 248.569 54.7245 248.303 54.4593L247.508 53.6638C247.243 53.3986 247.154 53.1335 246.978 52.7799C246.889 52.5148 246.889 52.338 246.801 52.2496C246.712 51.9844 246.712 51.2773 246.624 51.0122C246.624 51.0122 246.447 50.8354 246.447 51.0122L246.447 52.0728ZM251.043 52.7799C250.955 53.0451 251.132 53.2219 251.132 53.3986C251.132 53.5754 251.22 53.6638 251.22 53.6638C251.397 53.6638 251.485 53.3986 251.397 53.3102C251.574 53.1335 251.132 52.6915 251.043 52.7799V52.7799ZM249.452 51.5425C249.364 51.6309 249.452 51.896 249.541 51.8076C249.718 51.8076 249.894 51.8076 249.983 51.896C250.248 51.9844 250.248 51.8076 249.983 51.5425C249.718 51.4541 249.629 51.5425 249.452 51.5425V51.5425Z" fill="#634703" />
        <path d="M242.381 75.7609L242.116 76.0261C241.939 76.5564 242.293 77.0867 242.646 77.4403C243.177 77.9706 244.061 78.1474 244.679 78.059C244.768 77.9706 244.945 77.9706 245.121 77.9706C245.563 77.8822 245.828 77.7938 246.005 77.7938C246.005 77.7938 246.005 77.617 246.094 77.5287C246.182 77.2635 246.094 76.8216 245.828 76.3796C245.652 76.0261 245.298 75.4957 245.121 75.3189C244.414 74.4351 243.707 74.2583 243.177 74.2583C243.177 74.2583 243.265 74.3467 243.177 74.4351C243.177 74.7886 243.088 75.0538 242.823 75.319C242.735 75.5841 242.558 75.5841 242.381 75.7609V75.7609Z" fill="#455A64" />
    </g>
    <g clip-path="url(#clip4_11_74)">
        <path d="M172.873 285.591C161.018 297.075 142.063 296.766 130.579 284.85C129.282 286.579 128.171 288.493 127.368 290.468C123.602 278.984 121.317 269.352 122.182 261.882C122.614 255.584 125.084 249.533 129.159 244.717C139.778 232.122 158.672 230.517 171.267 241.136L171.508 241.351L171.521 241.359C171.561 241.387 171.6 241.415 171.638 241.445C171.753 241.534 171.857 241.632 171.951 241.736L171.985 241.774L172.379 242.124C172.763 242.453 173.147 242.783 173.488 243.155L173.614 243.297C185.098 255.152 184.727 274.107 172.873 285.591H172.873ZM168.428 245.396C169.539 246.261 171.144 246.137 172.009 245.026C172.769 244.049 172.765 242.689 171.997 241.788L171.985 241.774L171.509 241.351L171.462 241.319C170.383 240.609 168.93 240.756 168.102 241.759L168.057 241.815C167.193 242.927 167.378 244.532 168.427 245.397L168.428 245.396ZM127.677 287.382C130.764 280.898 138.42 275.959 145.027 274.415C151.263 272.934 156.696 274.168 162.438 271.946C175.528 266.944 175.281 251.386 168.119 247.866L167.686 247.619C167.686 247.619 162.513 248.648 157.397 250.006L156.959 250.123C154.915 250.674 152.905 251.274 151.263 251.879C142.742 255.028 133.357 262.808 130.27 271.822C131.876 262.437 139.964 253.361 148.052 249.224C152.374 247.002 155.708 246.508 162.809 244.038C163.673 243.729 164.352 243.421 164.352 243.421L164.093 243.456L163.92 243.478L163.748 243.499C162.18 243.694 160.771 243.791 160.771 243.791C150.707 244.285 134.901 240.951 127.553 250.768C120.021 260.77 124.219 276.947 127.677 287.382H127.677Z" fill="#6DB33F" />
        <path d="M168.427 245.396C167.377 244.532 167.192 242.927 168.057 241.815C168.921 240.704 170.526 240.58 171.638 241.445C172.749 242.309 172.872 243.915 172.008 245.026C171.144 246.137 169.539 246.261 168.427 245.396H168.427ZM127.677 287.381C124.219 276.947 120.02 260.77 127.553 250.768C134.901 240.951 150.707 244.285 160.771 243.791C160.771 243.791 162.18 243.694 163.748 243.499L163.92 243.478C164.063 243.46 164.207 243.44 164.352 243.42C164.352 243.42 163.673 243.729 162.808 244.038C155.708 246.508 152.374 247.002 148.052 249.224C139.963 253.361 131.875 262.437 130.27 271.822C133.357 262.808 142.742 255.028 151.262 251.879C157.128 249.718 167.686 247.619 167.686 247.619L168.118 247.866C175.28 251.385 175.527 266.944 162.438 271.946C156.696 274.168 151.262 272.934 145.026 274.415C138.42 275.959 130.764 280.898 127.677 287.381V287.381Z" fill="white" />
    </g>
    <g clip-path="url(#clip5_11_74)">
        <path d="M14.6861 121.584L1.86248 143.183C1.11099 144.443 0.714233 145.883 0.714233 147.35C0.714233 148.817 1.11099 150.257 1.86248 151.517L14.6861 173.121C15.4567 174.398 16.5458 175.453 17.8467 176.183C19.1476 176.914 20.6159 177.293 22.1077 177.286H47.7507C49.2418 177.293 50.7091 176.912 52.0092 176.182C53.3093 175.452 54.3977 174.397 55.1679 173.121L67.9873 151.522C68.7384 150.261 69.1349 148.822 69.1349 147.354C69.1349 145.887 68.7384 144.447 67.9873 143.187L55.1679 121.588C54.3979 120.31 53.309 119.254 52.0081 118.523C50.7071 117.792 49.2386 117.412 47.7464 117.419H22.1077C20.6159 117.411 19.1476 117.791 17.8467 118.521C16.5458 119.251 15.4567 120.307 14.6861 121.584V121.584Z" fill="white" />
        <path d="M14.717 121.461L1.86524 143.108C1.11202 144.371 0.714355 145.814 0.714355 147.284C0.714355 148.755 1.11202 150.198 1.86524 151.461L14.717 173.111C15.4893 174.392 16.5808 175.449 17.8846 176.181C19.1884 176.913 20.6598 177.293 22.1549 177.286H47.8544C49.3488 177.293 50.8194 176.912 52.1223 176.18C53.4253 175.448 54.5161 174.391 55.288 173.111L68.1355 151.465C68.8882 150.202 69.2856 148.759 69.2856 147.289C69.2856 145.818 68.8882 144.375 68.1355 143.112L55.288 121.466C54.5162 120.185 53.4249 119.126 52.1211 118.394C50.8172 117.661 49.3454 117.28 47.8499 117.287H22.1549C20.6598 117.279 19.1884 117.66 17.8846 118.392C16.5808 119.123 15.4894 120.181 14.717 121.461V121.461ZM66.8222 150.706L53.9747 172.353C53.3374 173.405 52.4388 174.273 51.3663 174.875C50.2938 175.476 49.0839 175.79 47.8542 175.786H22.1552C20.9254 175.791 19.7154 175.477 18.6429 174.875C17.5703 174.274 16.6718 173.405 16.0349 172.353L3.18283 150.706C2.56587 149.672 2.24013 148.49 2.24013 147.286C2.24013 146.082 2.56587 144.9 3.18283 143.866L16.0346 122.237C16.5682 121.356 17.2875 120.602 18.1425 120.028C18.9974 119.454 19.9674 119.073 20.9846 118.912C19.4546 119.632 19.0341 121.249 20.1178 123.134L32.7918 143.598C34.2786 146.151 35.9562 148.032 39.0336 148.036H64.2693C66.1113 148.036 67.3033 147.295 67.6544 146.151C67.7232 146.525 67.7595 146.905 67.7629 147.286C67.762 148.49 67.4371 149.671 66.8222 150.706V150.706Z" fill="#2F3A3E" />
        <path d="M50.2838 127.195L53.5016 132.575C53.53 132.645 53.5782 132.706 53.6403 132.75C53.7025 132.793 53.776 132.818 53.852 132.821H55.2662C55.4393 132.821 55.5084 132.705 55.4261 132.562L52.1047 127.099C52.0555 127.034 51.9888 126.984 51.9122 126.954C51.8356 126.925 51.7524 126.919 51.6721 126.935H50.4309C50.2707 126.939 50.2016 127.065 50.2836 127.195H50.2838Z" fill="#3AB14A" />
        <path d="M38.4371 138.644C38.3506 138.471 38.4371 138.328 38.6835 138.324L40.5606 138.307C40.2667 137.66 40.179 136.938 40.3097 136.239C40.3445 136.105 40.5261 136.049 40.7423 136.101L42.3901 136.512C42.5144 136.543 42.628 136.607 42.7188 136.698C42.7501 136.729 42.7763 136.766 42.7964 136.806C42.823 136.855 42.8322 136.911 42.8227 136.966C42.6718 137.647 42.7861 138.36 43.1425 138.96C43.3361 139.389 43.647 139.756 44.0396 140.017C44.4321 140.278 44.8903 140.422 45.3614 140.434C46.2264 140.434 46.4642 140.002 46.4902 138.492C46.525 136.499 47.3942 135.634 49.4053 135.612C50.4425 135.635 51.4621 135.884 52.3935 136.341C53.3248 136.798 54.1455 137.453 54.7986 138.259L56.6409 138.224C56.7536 138.226 56.8641 138.255 56.9624 138.311C57.0606 138.366 57.1435 138.445 57.2034 138.54L57.8302 139.63C57.9167 139.803 57.8302 139.946 57.5881 139.95H55.776C56.1652 140.884 56.256 141.831 56.0139 142.437C55.9705 142.549 55.802 142.601 55.6073 142.554L53.9422 142.16C53.8105 142.13 53.6902 142.063 53.5962 141.966C53.5667 141.935 53.5418 141.9 53.5225 141.862C53.51 141.834 53.5035 141.803 53.5035 141.773C53.5035 141.742 53.51 141.712 53.5225 141.684C53.7314 140.913 53.6275 140.091 53.233 139.396C52.9958 138.905 52.6287 138.487 52.1713 138.189C51.7139 137.891 51.1836 137.724 50.638 137.705C49.7037 137.705 49.3145 138.22 49.3056 139.435C49.3056 141.005 49.003 142.463 46.7106 142.493C45.7216 142.475 44.7488 142.239 43.8619 141.801C42.9751 141.362 42.1962 140.733 41.5812 139.959L39.6955 140.036C39.5814 140.037 39.4691 140.008 39.3693 139.953C39.2694 139.897 39.1853 139.818 39.1249 139.721L38.4371 138.644V138.644Z" fill="white" />
    </g>
    <g clip-path="url(#clip6_11_74)">
        <path d="M262.886 176.705C263.976 176.345 264.735 175.403 264.917 174.184C265.002 173.609 264.966 172.951 264.805 172.172C264.525 170.815 264.419 169.808 264.398 169.073C269.082 171.847 274.423 174.103 279.451 175.402C287.582 177.502 291.286 176.379 292.961 175.068C297.395 171.598 299.777 166.535 299.85 160.426C299.89 157.168 299.247 154.307 298.784 152.815C299.029 151.426 299.166 149.932 299.191 148.364C299.238 145.426 298.598 142.83 297.281 140.611C297.697 139.383 298.282 137.412 298.656 135.136C299.535 129.782 298.85 125.467 296.62 122.311C293.921 118.49 289.23 116.718 282.68 117.046C280.6 117.15 274.272 118.313 268.27 120.145C264.821 121.198 261.956 122.32 259.755 123.482C256.635 125.129 254.797 126.891 254.137 128.869C253.767 129.978 253.509 131.993 255.274 134.112C254.948 134.38 254.625 134.739 254.325 135.214C253.944 135.818 253.633 136.557 253.448 137.294C252.784 139.952 252.95 142.442 253.881 144.566C253.504 144.579 253.143 144.59 252.831 144.598C252.325 144.612 251.83 144.626 251.366 144.645C248.232 144.77 245.794 144.984 244.089 145.616C243.995 145.65 243.852 145.697 243.701 145.746C242.735 146.061 241.12 146.588 239.854 147.93C238.543 149.318 238.141 150.998 238.141 152.536C238.141 153.308 238.243 154.044 238.381 154.69C238.874 156.991 239.626 159.605 242.318 161.496C244.864 163.284 248.697 164.153 254.738 164.311C254.909 164.331 255.072 164.35 255.227 164.368L255.546 164.405L255.509 164.826L255.502 164.935C255.395 167.279 255.892 170.146 256.71 171.906C257.356 173.297 259.709 177.755 262.886 176.705" fill="black" />
        <path d="M262.268 172.697C260.83 165.726 263.19 165.247 263.19 165.247C274.111 172.606 287.972 175.683 291.365 173.028C300.619 165.785 296.242 153.247 296.129 153.038L296.117 152.971C296.403 151.594 296.573 150.053 296.601 148.32C296.653 145.167 295.774 142.774 294.398 140.959C294.398 140.959 303.612 118.592 282.809 119.633C278.384 119.854 249.323 125.976 258.101 133.277C261.311 135.946 264.024 138.525 264.024 138.525C263.174 139.806 262.74 141.339 262.895 142.946L263.001 143.071C262.603 143.032 262.213 143.05 261.752 143.121C259.65 141.24 259.281 141.793 258.507 138.033C257.723 134.228 256.327 136.463 255.962 137.922C255.519 139.692 254.893 143.785 258.764 146.55L258.323 146.44C257.732 147.177 254.483 147.695 251.537 147.608C248.591 147.521 246.569 147.463 244.989 148.044C243.41 148.625 239.855 149.203 240.914 154.147C241.8 158.277 244.093 160.418 247.92 160.716C250.64 160.927 250.238 161.405 252.67 161.435L253.821 161.819C257.509 162.261 258.698 161.889 258.145 164.434L258.091 165.053C258.005 166.925 258.392 169.377 259.061 170.816C260.498 173.914 262.899 175.751 262.268 172.696V172.697" fill="#336791" />
        <path d="M280.83 142.268C280.917 141.64 280.837 141.071 280.619 140.783C280.496 140.621 280.354 140.571 280.256 140.558C279.997 140.521 279.711 140.703 279.563 140.814C279.145 141.13 278.858 141.591 278.794 142.047C278.785 142.113 278.781 142.179 278.781 142.244C278.781 143.005 279.373 143.696 279.81 143.757C280.358 143.833 280.723 143.039 280.83 142.268M280.813 163.077C281.242 163.017 281.364 162.253 281.263 161.528C281.163 160.805 280.836 160.103 280.406 160.161C280.071 160.208 279.5 160.812 279.5 161.527C279.5 161.588 279.504 161.649 279.513 161.71C279.579 162.187 279.882 162.537 280.057 162.704C280.323 162.957 280.62 163.104 280.813 163.077" fill="white" />
        <path d="M262.432 175.016C263.235 174.75 263.494 173.895 263.2 172.474C262.329 168.254 262.933 166.742 263.298 166.246C268.295 169.526 274.335 172.225 279.971 173.68C282.64 174.37 285.12 174.751 287.14 174.782C289.358 174.816 290.988 174.439 291.984 173.66C295.997 170.518 298.15 165.908 298.209 160.328C298.253 156.491 297.271 153.25 296.995 152.622C297.324 151.298 297.526 149.856 297.552 148.285C297.598 145.405 296.909 142.916 295.503 140.855C295.836 139.959 296.631 137.645 297.087 134.816C297.874 129.924 297.277 126.037 295.312 123.263C292.967 119.952 288.775 118.424 282.853 118.72C280.86 118.82 274.731 119.955 268.861 121.747C261.135 124.105 256.761 126.669 255.862 129.366C255.756 129.682 255.683 130.046 255.683 130.447C255.683 131.431 256.126 132.637 257.635 133.892C259.472 135.423 261.263 137.007 263.008 138.641C262.439 139.701 262.122 140.866 262.09 142.058C262.059 142.06 262.027 142.063 261.996 142.066C261.752 141.861 261.504 141.66 261.252 141.463C260.204 140.638 259.986 140.466 259.439 137.809C259.283 137.053 258.869 135.046 257.462 135.016C255.925 134.984 255.279 137.389 255.211 137.663C254.971 138.618 254.854 139.538 254.854 140.415C254.854 142.549 255.555 144.426 256.912 145.927C251.431 145.881 246.03 146.109 244.384 146.767C243.037 147.306 239.745 148.623 239.745 152.782C239.745 153.393 239.816 154.064 239.974 154.803C240.905 159.144 242.823 161.029 247.053 161.758C249.314 162.149 254.712 162.818 257.607 163.133C257.4 163.798 257.305 164.654 257.305 165.579C257.305 167.508 257.715 169.734 258.363 171.131C259.091 172.699 260.879 175.529 262.432 175.016V175.016ZM281.997 164.679C281.142 164.664 280.366 164.547 279.556 164.422C278.685 164.288 277.785 164.149 276.691 164.114C275.627 164.08 274.521 164.213 273.451 164.341C271.29 164.601 269.065 164.867 266.87 163.836C267.174 163.664 267.488 163.512 267.81 163.379C268.121 163.25 268.62 162.972 269.311 162.586C272 161.087 278.299 157.575 280.869 159.372C281.634 159.908 282.421 161.267 281.997 164.679V164.679ZM296.479 160.543C296.368 165.544 294.498 169.499 290.919 172.299C288.174 174.447 275.685 172.082 264.911 165.235C264.998 165.166 265.086 165.097 265.173 165.027L265.281 164.941C268.203 166.71 271.094 166.364 273.657 166.056C274.709 165.93 275.702 165.81 276.636 165.841C277.625 165.872 278.473 166.003 279.294 166.129C280.304 166.285 281.35 166.443 282.583 166.399C282.713 166.432 282.866 166.445 283.047 166.428C284.229 166.317 287.768 164.967 290.971 162.215C292.723 160.71 294.684 158.515 296.006 155.518C296.273 156.807 296.522 158.57 296.479 160.543V160.543ZM258.74 132.564C257.077 131.181 257.396 130.227 257.5 129.912C258.183 127.866 262.507 125.492 269.365 123.399C275.299 121.588 281.266 120.529 282.939 120.445C288.231 120.181 291.919 121.464 293.901 124.258C297.126 128.806 295.195 136.283 294.216 139.287C294.174 139.244 294.134 139.199 294.091 139.157C289.111 134.226 280.605 134.343 280.085 134.356C279.884 134.355 279.6 134.372 279.209 134.395C277.778 134.48 275.115 134.638 272.1 134.216C269.297 133.824 266.554 134.688 264.574 136.586C264.371 136.78 264.178 136.985 263.996 137.199C263.091 136.354 261.09 134.518 258.74 132.564V132.564ZM265.769 137.833C267.365 136.303 269.585 135.609 271.861 135.927C275.046 136.372 277.821 136.208 279.311 136.119C279.52 136.107 279.703 136.096 279.847 136.089C280.486 136.81 282.274 140.147 281.728 142.528C281.48 143.614 280.74 144.276 279.468 144.551C272.881 145.975 270.136 144.739 267.93 143.746C267.475 143.542 267.046 143.349 266.601 143.184L266.258 143.056C265.389 142.732 264.582 142.43 263.815 142.243C263.819 140.617 264.514 139.036 265.769 137.833H265.769ZM256.886 138.082C257.005 137.607 257.211 137.18 257.382 136.93C257.48 137.139 257.614 137.512 257.747 138.158C258.391 141.283 258.845 141.766 260.184 142.82C260.491 143.062 260.838 143.336 261.262 143.716L261.263 143.716C261.895 144.281 261.788 144.54 261.594 145.008C261.436 145.388 260.96 145.758 260.436 145.908C260.189 145.979 259.719 146.059 259.353 145.798C256.27 143.596 256.31 140.387 256.886 138.082V138.082ZM241.663 154.441C240.844 150.617 242.795 149.263 245.026 148.371C246.466 147.795 252.959 147.512 260.13 147.713C260.226 147.716 260.318 147.702 260.405 147.676C260.576 147.652 260.745 147.617 260.911 147.569C261.955 147.27 262.827 146.543 263.189 145.67C263.333 145.323 263.597 144.686 263.401 143.921C264.073 144.084 264.832 144.367 265.654 144.674L266 144.803C266.39 144.947 266.794 145.129 267.221 145.321C269.529 146.36 272.691 147.783 279.833 146.239C282.508 145.661 283.814 143.729 283.511 140.801C283.329 139.045 282.621 137.439 282.215 136.638C282.128 136.466 282.043 136.308 281.961 136.161C284.656 136.385 289.694 137.229 292.881 140.389C294.887 142.379 295.878 145.028 295.824 148.257C295.72 154.617 292.456 158.697 289.736 160.999C287.392 162.982 285.03 164.056 283.757 164.485C284.085 161.261 283.448 159.069 281.859 157.957C278.403 155.539 271.694 159.28 268.47 161.078C267.879 161.408 267.368 161.692 267.151 161.782C265.732 162.367 264.785 163.125 264.093 163.679C263.881 163.848 263.676 164.013 263.496 164.138C263.215 163.162 262.565 161.408 259.314 161.568C257.682 161.439 250.045 160.522 247.347 160.056C243.782 159.442 242.454 158.13 241.663 154.441H241.663ZM259.929 170.403C259.466 169.405 259.119 167.734 259.044 166.147C258.962 164.394 259.24 163.501 259.411 163.291C261.437 163.193 261.649 163.947 261.873 164.745C261.908 164.87 261.943 164.993 261.984 165.111C261.924 165.184 261.865 165.264 261.807 165.353C260.877 166.762 260.776 169.275 261.509 172.823L261.517 172.862C261.069 172.383 260.469 171.564 259.929 170.403Z" fill="white" />
    </g>
    <g clip-path="url(#clip7_11_74)">
        <path d="M144.316 46.3826C144.316 46.3826 142.027 47.7135 145.945 48.1639C150.691 48.7053 153.116 48.6277 158.346 47.6377C158.346 47.6377 159.722 48.4999 161.642 49.2468C149.917 54.2717 135.107 48.9557 144.316 46.3826M142.883 39.8253C142.883 39.8253 140.316 41.7255 144.236 42.1309C149.306 42.6539 153.31 42.6968 160.238 41.3627C160.238 41.3627 161.196 42.3342 162.703 42.8655C148.527 47.0107 132.738 43.1924 142.883 39.8253" fill="#5382A1" />
        <path d="M154.961 28.702C157.85 32.028 154.202 35.0211 154.202 35.0211C154.202 35.0211 161.537 31.2344 158.169 26.4923C155.022 22.0703 152.609 19.8728 165.672 12.2972C165.672 12.2972 145.168 17.4181 154.961 28.7019" fill="#E76F00" />
        <path d="M170.468 51.2327C170.468 51.2327 172.161 52.6281 168.602 53.7078C161.835 55.758 140.435 56.3771 134.49 53.7895C132.353 52.86 136.361 51.5698 137.621 51.2989C138.936 51.0139 139.687 51.0671 139.687 51.0671C137.311 49.3928 124.326 54.3544 133.092 55.7752C156.997 59.6519 176.668 54.0296 170.468 51.2327ZM145.416 33.0312C145.416 33.0312 134.531 35.6167 141.562 36.5554C144.53 36.9529 150.448 36.863 155.96 36.4011C160.465 36.0213 164.988 35.2132 164.988 35.2132C164.988 35.2132 163.4 35.8935 162.251 36.6782C151.197 39.5854 129.843 38.233 135.99 35.2592C141.189 32.7461 145.416 33.0312 145.416 33.0312M164.943 43.946C176.18 38.1069 170.985 32.4957 167.358 33.2518C166.469 33.4366 166.073 33.5969 166.073 33.5969C166.073 33.5969 166.403 33.0801 167.033 32.8564C174.207 30.3341 179.725 40.2952 164.717 44.2403C164.717 44.2404 164.891 44.0851 164.943 43.946Z" fill="#5382A1" />
        <path d="M158.169 0.0643214C158.169 0.0643214 164.392 6.28975 152.266 15.8622C142.543 23.5411 150.049 27.9194 152.262 32.9218C146.586 27.801 142.421 23.293 145.216 19.0975C149.317 12.9385 160.679 9.95253 158.169 0.0641479" fill="#E76F00" />
        <path d="M146.52 59.7685C157.306 60.459 173.869 59.3854 174.262 54.2818C174.262 54.2818 173.508 56.2167 165.348 57.7531C156.142 59.4855 144.787 59.2833 138.053 58.173C138.053 58.173 139.432 59.314 146.521 59.7685" fill="#5382A1" />
    </g>
    <circle cx="152" cy="147" r="75" stroke="#131313" stroke-width="10" />
    <defs>
        <clipPath id="clip0_11_74">
            <rect width="100" height="37.5" fill="white" transform="translate(18 90.7107) rotate(-45)" />
        </clipPath>
        <clipPath id="clip1_11_74">
            <rect width="60" height="60" fill="white" transform="translate(285.426 245) rotate(135)" />
        </clipPath>
        <clipPath id="clip2_11_74">
            <rect width="83.027" height="60" fill="white" transform="translate(72.6548 284.568) rotate(-135)" />
        </clipPath>
        <clipPath id="clip3_11_74">
            <rect width="60" height="60" fill="white" transform="translate(243 18.5736) rotate(45)" />
        </clipPath>
        <clipPath id="clip4_11_74">
            <rect width="60" height="60" fill="white" transform="translate(182 294) rotate(-180)" />
        </clipPath>
        <clipPath id="clip5_11_74">
            <rect width="60" height="68.5714" fill="white" transform="translate(0.714233 177.286) rotate(-90)" />
        </clipPath>
        <clipPath id="clip6_11_74">
            <rect width="60" height="61.875" fill="white" transform="translate(299.938 116.938) rotate(90)" />
        </clipPath>
        <clipPath id="clip7_11_74">
            <rect width="44.3931" height="60" fill="white" transform="translate(130)" />
        </clipPath>
    </defs>
</svg>
    