<svg width="297" height="300" viewBox="0 0 297 300" fill="none" xmlns="http://www.w3.org/2000/svg">
    <g clip-path="url(#clip0_10_34)">
        <path d="M282.426 232L240 274.426L197.574 232L240 189.574L282.426 232Z" fill="#F7DF1E" />
        <path d="M235.816 207.701L234.535 212.912C232.798 212.428 231.288 212.058 229.921 213.425C228.611 214.735 228.298 216.074 230.291 218.067L243.847 231.623L239.86 235.61L226.248 221.998C222.118 217.868 222.659 213.568 226.191 210.036C229.38 206.847 232.883 206.647 235.817 207.701M222.145 222.227L220.779 227.352C218.528 226.811 216.392 226.897 214.427 228.862C212.775 230.514 212.548 232.393 213.687 233.533C215.054 234.899 216.621 234.301 219.24 233.276L220.665 232.707C224.765 231.055 228.211 230.685 231.458 233.931C234.448 236.922 234.448 241.478 230.888 245.038C228.354 247.573 225.648 248.513 222.031 247.516L223.142 242.418C225.05 242.959 226.275 242.703 227.414 241.563C228.582 240.396 228.582 238.915 227.613 237.947C226.417 236.75 225.192 237.006 222.743 237.975L221.319 238.544C216.478 240.481 213.089 240.908 209.757 237.576C206.168 233.988 207.023 229.203 210.811 225.416C214.513 221.713 218.671 221.087 222.145 222.226" fill="black" />
    </g>
    <g clip-path="url(#clip1_10_34)">
        <path d="M47.2389 244.808C52.8957 250.465 59.2599 251.172 66.3308 246.929C61.381 247.636 57.8455 246.222 55.7242 242.687C54.5139 240.67 54.5313 238.345 54.5504 235.773C54.5817 231.581 54.618 226.731 49.3603 221.473C43.7035 215.817 37.3393 215.109 30.2684 219.352C35.2182 218.645 38.7537 220.059 40.875 223.595C42.0853 225.612 42.0679 227.936 42.0488 230.509C42.0175 234.7 41.9812 239.55 47.2389 244.808ZM70.5735 242.687C76.2303 248.343 82.5944 249.051 89.6654 244.808C84.7155 245.515 81.1801 244.101 79.0587 240.565C77.8484 238.548 77.8658 236.224 77.8849 233.651C77.9162 229.46 77.9525 224.61 72.6948 219.352C67.038 213.695 60.6739 212.988 53.6029 217.231C58.5527 216.524 62.0882 217.938 64.2095 221.473C65.4198 223.49 65.4024 225.815 65.3834 228.387C65.352 232.579 65.3157 237.429 70.5735 242.687Z" fill="url(#paint0_linear_10_34)" />
    </g>
    <g clip-path="url(#clip2_10_34)">
        <path d="M211.716 81.1422C215.619 85.0454 221.955 85.0454 225.858 81.1422L232.929 74.0711L225.858 67C221.955 63.0968 215.619 63.0968 211.716 67C207.812 70.9033 207.812 77.2389 211.716 81.1422Z" fill="#0ACF83" />
        <path d="M225.858 52.8579C229.761 48.9547 236.097 48.9547 240 52.8579L247.071 59.929L232.929 74.0711L225.858 67.0001C221.955 63.0968 221.955 56.7612 225.858 52.8579Z" fill="#A259FF" />
        <path d="M240 38.7158C243.903 34.8126 250.239 34.8126 254.142 38.7158L261.213 45.7868L247.071 59.929L240 52.8579C236.097 48.9547 236.097 42.619 240 38.7158Z" fill="#F24E1E" />
        <path d="M261.213 45.7869L268.284 52.8579C272.187 56.7612 272.187 63.0968 268.284 67.0001C264.381 70.9033 258.045 70.9033 254.142 67.0001L247.071 59.929L261.213 45.7869Z" fill="#FF7262" />
        <path d="M254.142 81.1422C250.239 85.0454 243.903 85.0454 240 81.1422C236.097 77.2389 236.097 70.9033 240 67C243.903 63.0968 250.239 63.0968 254.142 67C258.045 70.9033 258.045 77.2389 254.142 81.1422Z" fill="#1ABCFE" />
    </g>
    <g clip-path="url(#clip3_10_34)">
        <path d="M77.699 46.6118C76.2306 48.0954 75.3032 49.7338 74.7546 51.3334C73.5798 50.9471 72.4903 50.6458 71.9107 50.2051C71.2384 49.6875 70.7825 49.4169 70.1641 48.6133C69.546 47.8095 68.9508 46.3798 68.8658 46.3103C68.781 46.2407 68.3325 45.9626 67.4748 46.805C66.617 47.6473 66.0529 48.5515 66.1919 48.8606C66.331 49.1696 66.6789 49.842 67.096 50.4756C67.7221 51.3954 68.9276 55.7073 69.4841 58.0411C68.6341 57.7631 67.8922 57.5157 67.4439 57.1758C66.7717 56.6581 66.3156 56.3876 65.6974 55.5838C65.0792 54.78 64.4843 53.3505 64.3991 53.2809C64.3141 53.2114 63.8658 52.9332 63.0081 53.7756C62.1502 54.618 61.586 55.5222 61.7252 55.8311C61.8645 56.1403 62.297 56.7585 62.6295 57.4463C62.9617 58.1342 65.5043 64.8034 66.1533 66.5343C66.4164 67.2345 66.6637 67.9405 66.8953 68.6518C66.8953 68.6518 66.9107 68.6828 66.9261 68.7446C66.9986 68.9678 67.0682 69.1919 67.1349 69.4168L67.1426 69.4244C67.2354 69.7493 67.3048 70.066 67.243 70.1278C67.1966 70.1742 66.5552 69.7029 65.9447 68.7986C64.6542 66.89 62.8999 63.6674 62.8073 63.59C62.7609 63.5436 62.4672 62.9718 61.6248 63.3657C60.7978 63.7446 60.9525 64.3318 60.8983 64.386C60.8442 64.44 60.9369 64.6102 60.9369 64.6102C60.9369 64.6102 58.8119 61.1402 56.8566 63.0954C55.6357 64.3164 55.2879 67.3381 55.6588 69.3782C55.2263 70.8433 54.7961 72.309 54.3682 73.7755C54.1675 74.4863 53.9511 75.2128 53.7501 75.8928C53.6883 75.893 53.6187 75.885 53.5568 75.8852C48.665 75.7229 42.5059 78.3116 39.2989 74.7337C38.132 73.4276 35.3112 69.7569 39.2757 57.91C42.5754 48.196 48.6418 43.9068 51.5089 44.981C55.6047 46.5114 56.7718 55.7925 50.8056 63.2731C48.526 66.1248 46.192 66.4803 45.4812 66.4493C44.7393 66.4183 44.6619 66.4493 44.6078 66.6581C44.5076 66.9904 44.9943 67.199 45.2724 67.3227C45.9988 67.647 47.753 67.7476 49.6079 66.8049C51.2461 65.9702 54.4765 63.1883 56.7098 58.1418C59.2058 52.4927 58.0081 44.927 53.4024 42.1913C48.7423 39.4016 41.3312 44.3552 37.5599 52.284C35.3191 56.9981 33.4951 62.7168 33.3174 67.964C33.1086 74.2004 35.2184 77.3303 36.5245 78.2191C41.169 81.3642 49.0747 78.528 53.1009 78.2576C53.0545 78.4276 53.0081 78.5824 52.9697 78.7137C52.4286 80.3211 50.4733 86.5574 51.7176 89.8418C53.1241 93.5666 56.3083 94.0612 57.444 93.4197C60.968 91.426 62.4286 87.2144 61.6788 83.4198C60.9292 79.6255 57.7917 76.8588 55.7362 76.2097C55.713 76.2021 55.6898 76.1941 55.6588 76.1943C55.7748 75.7538 55.8906 75.2978 56.0066 74.8573C56.2157 74.0436 56.4424 73.2345 56.6866 72.4306C57.1425 73.4122 57.8071 74.4632 58.951 75.7924C60.2879 77.3613 62.7683 78.6518 64.2907 78.6131C64.9634 78.59 65.3805 78.1881 65.6434 77.9253C66.5552 77.0135 66.2075 75.8464 65.767 74.4941C65.2261 72.8404 64.4533 71.063 64.4533 71.063C64.4533 71.063 67.274 75.1356 68.9742 73.4354C69.5924 72.8172 69.4145 71.3875 69.2833 70.6997L69.2909 70.7073C69.2909 70.7073 69.2831 70.6687 69.2601 70.5837C69.2215 70.4215 69.1981 70.3209 69.1981 70.3209L69.1828 70.3056C68.9972 69.6255 68.5723 68.0875 67.7685 65.6301C66.733 62.4617 65.1334 58.8064 65.1334 58.8064C65.1334 58.8064 65.8676 59.355 67.2508 60.1047C68.0624 60.5451 69.1363 60.8467 70.1101 61.202C70.2107 61.7971 70.2491 62.1448 70.2491 62.1448L70.2647 62.1448C70.3264 62.6085 70.396 63.1107 70.4348 63.6288C70.5968 65.4756 70.744 67.6318 70.9369 68.1031C71.1686 68.6596 71.4934 68.9069 72.0345 68.8295C72.4286 68.7754 72.8534 68.3968 73.24 67.964C73.9432 67.1525 74.2909 66.4339 74.4378 66.0553C74.7006 65.4988 74.9555 64.7955 75.0713 64.0151C75.2878 62.5775 74.9167 61.2022 73.7192 60.0971C73.0622 59.4865 72.2198 59.0615 71.3696 58.7214C71.339 58.5359 71.3002 58.3583 71.2694 58.1727C70.6664 54.9579 69.5846 51.8511 69.5846 51.8511C69.5846 51.8511 70.3187 52.3997 71.7021 53.1496C72.3976 53.5359 73.3019 53.8064 74.1517 54.1001C73.92 56.3258 74.3217 58.2423 74.8086 59.2701C75.7284 61.1634 76.7405 61.4184 77.6061 60.8465C78.0002 60.5916 78.3093 59.9733 78.5026 59.4864C78.7962 58.9146 79.0669 58.165 79.1981 57.3225C79.4147 55.8851 79.3604 54.2391 78.1627 53.1342C77.6139 52.6319 76.957 52.253 76.2614 51.9439C76.8721 50.4681 77.9772 48.8838 79.8935 47.3692C84.0049 44.1232 87.0265 45.692 87.8534 46.7974C88.6803 47.9023 88.433 49.2006 88.3404 49.6178C88.2475 50.0354 88.2167 50.1743 88.3558 50.2669C88.5566 50.4061 88.6726 50.2749 88.8581 50.0274C89.1055 49.672 90.0096 47.3148 88.3016 45.4679C86.1456 43.08 81.5011 42.7632 77.699 46.6118V46.6118ZM58.8891 84.5559C58.9972 87.1061 57.7995 89.3085 56.6404 89.6177C55.3961 89.9499 53.7423 87.6779 53.8351 84.7724C53.8891 83.0027 54.2676 81.0319 54.5615 79.7645C54.6309 79.4787 54.7393 79.0614 54.8629 78.5512C54.886 78.4662 54.9016 78.4198 54.9016 78.4198L54.971 78.1184C57.5288 79.5791 58.7733 81.8743 58.8891 84.5559V84.5559ZM61.733 69.6255C62.3436 71.0862 64.1056 74.6255 63.4178 75.0196C62.8305 75.3597 60.5351 73.6364 59.206 70.9934C58.5413 69.6641 58.0544 67.7708 58.0005 66.8976C57.9231 65.491 58.4099 64.5094 58.8891 64.6334C59.5075 64.8033 61.3466 68.7136 61.733 69.6255V69.6255ZM72.5753 65.8001C72.4903 66.0708 72.3822 66.3024 72.2584 66.3334C72.1734 66.3565 72.1812 66.1014 72.1812 66.1014C72.1812 66.1014 72.1118 64.1927 72.0266 63.3813C71.9727 62.9098 71.9107 62.3536 71.8257 61.7429L71.9261 61.8434C73.1086 63.0258 72.7607 64.9657 72.5751 65.8003L72.5753 65.8001ZM76.9416 58.8528C76.7173 58.8914 76.4315 58.5591 75.9059 57.1526C75.6973 56.6039 75.4654 55.5686 75.5428 54.2701C75.8673 54.4401 76.1612 54.6256 76.3774 54.8574C77.8612 56.3568 77.3513 57.9794 76.9416 58.8528Z" fill="#CD6799" />
    </g>
    <path d="M51.0019 166.934L3.75 171.145L3.75 124.855L50.9944 129.072L56.25 148.028L51.0019 166.934Z" fill="#1572B6" />
    <path d="M52.2338 148L47.9869 132.681L7.61438 129.078L7.61438 148H52.2338Z" fill="#33A9DC" />
    <path d="M24.7331 148V140.331L18.7987 139.803V148H13.0031L13.0031 133.469L14.5575 133.607L30.5287 135.031V148H24.7331V148Z" fill="white" />
    <path d="M39.7837 147.964L39.7912 147.991L38.0475 154.444L33.4256 154.857V160.675L42.525 159.863L45.8212 147.992L45.8137 147.964H39.7837V147.964Z" fill="#EBEBEB" />
    <path d="M30.2831 140.824L38.0438 141.522L39.7875 147.985H45.8175L42.525 136.105L41.5463 136.017L30.2831 135.01V140.824V140.824Z" fill="white" />
    <path d="M13.0031 147.979H18.7987V161.978L17.4956 162.094L14.5575 162.359L13.0031 162.497L13.0031 147.979V147.979ZM24.7331 148H30.5287V154.373L29.2256 154.489L26.2875 154.752L24.7331 154.891V148V148Z" fill="#EBEBEB" />
    <path d="M168.934 248.998L173.147 296.25H126.853L131.072 249.006L150.028 243.75L168.934 248.998Z" fill="#E44F26" />
    <path d="M150 247.766L134.681 252.013L131.078 292.386H150V247.766Z" fill="#F1662A" />
    <path d="M150 274.862H157.669L158.197 280.796H150V286.592H164.531L164.392 285.036L162.969 269.066H150V274.862V274.862ZM150 259.811L150.026 259.804L156.48 261.546L156.892 266.168H162.711L161.899 257.07L150.026 253.774L150 253.781V259.811Z" fill="#EBEBEB" />
    <path d="M150.021 274.862V269.066H142.884L143.556 261.549L150.021 259.806V253.776L138.139 257.07L138.053 258.049L136.691 273.306L136.549 274.862H150.021V274.862ZM150.021 286.592V280.796H136.022L135.906 282.098L135.641 285.036L135.503 286.592H150.021V286.592Z" fill="white" />
    <g clip-path="url(#clip4_10_34)">
        <path d="M279.416 169.051C279.635 168.412 279.838 167.768 280.025 167.119C280.47 167.228 280.91 167.329 281.342 167.418C288.439 168.88 294.157 167.924 296.039 164.659C297.844 161.529 295.962 156.41 291.463 151.241C291.019 150.731 290.562 150.233 290.092 149.746C290.404 149.421 290.711 149.089 291.01 148.752C295.821 143.334 297.849 137.903 295.961 134.642C294.151 131.515 288.776 130.589 282.05 131.905C281.383 132.036 280.721 132.184 280.062 132.349C279.844 131.58 279.611 130.838 279.364 130.128C277.149 123.776 273.678 119.719 270.078 119.719C266.359 119.719 262.63 124.074 260.368 130.69C260.186 131.227 260.016 131.768 259.861 132.312C259.151 132.135 258.437 131.978 257.719 131.841C251.11 130.586 245.862 131.566 244.063 134.685C242.205 137.906 244.115 143.313 248.716 148.577C249.091 149.004 249.475 149.422 249.87 149.829C249.362 150.356 248.869 150.897 248.39 151.451C244.003 156.551 242.231 161.587 244.034 164.703C245.897 167.921 251.535 168.967 258.394 167.609C258.931 167.502 259.466 167.382 259.998 167.249C260.11 167.629 260.226 168.002 260.346 168.365C262.625 175.243 266.31 179.719 270.078 179.719C273.691 179.719 277.185 175.531 279.416 169.051V169.051ZM262.779 167.559C262.671 167.231 262.566 166.894 262.464 166.551C264.868 165.792 267.424 164.767 270.065 163.513C272.643 164.71 275.167 165.695 277.555 166.433C277.378 167.047 277.19 167.642 276.993 168.217C275.081 173.769 272.255 177.156 270.078 177.156C267.758 177.156 264.747 173.498 262.779 167.559V167.559ZM257.896 165.095C254.863 165.695 252.121 165.781 249.977 165.383C248.051 165.026 246.767 164.307 246.253 163.418C245.158 161.528 246.581 157.484 250.333 153.123C250.778 152.608 251.237 152.104 251.709 151.614C253.558 153.305 255.708 154.995 258.095 156.644C258.352 159.544 258.773 162.285 259.348 164.77C258.867 164.89 258.383 164.998 257.896 165.095V165.095ZM246.442 140.174C245.789 138.327 245.771 136.855 246.283 135.966C247.375 134.073 251.589 133.286 257.241 134.36C257.909 134.487 258.573 134.633 259.233 134.798C258.689 137.255 258.298 139.976 258.062 142.883C255.726 144.544 253.579 146.282 251.699 148.034C251.339 147.662 250.988 147.28 250.646 146.891C248.611 144.563 247.168 142.23 246.442 140.174V140.174ZM262.794 131.52C263.794 128.594 265.093 126.178 266.511 124.522C267.786 123.033 269.051 122.282 270.078 122.282C272.263 122.282 275.049 125.539 276.943 130.972C277.173 131.631 277.39 132.321 277.593 133.037C275.151 133.788 272.597 134.773 270.015 135.961C267.395 134.757 264.801 133.759 262.33 133C262.472 132.503 262.627 132.009 262.794 131.52V131.52ZM282.542 134.421C288.305 133.293 292.651 134.042 293.743 135.926C294.905 137.934 293.248 142.372 289.094 147.051C288.822 147.356 288.545 147.656 288.263 147.951C286.391 146.208 284.26 144.485 281.938 142.84C281.676 140.018 281.256 137.317 280.693 134.833C281.306 134.68 281.922 134.543 282.542 134.421H282.542ZM276.151 160.302C277.164 159.715 278.165 159.107 279.152 158.477C278.91 160.392 278.588 162.226 278.195 163.948C276.538 163.431 274.805 162.787 273.029 162.028C274.081 161.474 275.122 160.898 276.151 160.302V160.302ZM286.431 149.748C285.15 150.93 283.72 152.114 282.169 153.278C282.28 150.916 282.281 148.549 282.17 146.187C283.707 147.353 285.135 148.547 286.431 149.748ZM276.133 139.125C275.113 138.537 274.078 137.972 273.031 137.432C274.801 136.685 276.542 136.047 278.223 135.525C278.606 137.237 278.919 139.063 279.156 140.965C278.163 140.328 277.156 139.715 276.134 139.125H276.133ZM260.817 141.019C261.036 139.054 261.333 137.201 261.706 135.49C263.416 136.02 265.194 136.672 267.002 137.435C265.954 137.977 264.919 138.544 263.898 139.136C262.848 139.744 261.819 140.373 260.817 141.019ZM253.544 149.818C254.855 148.603 256.305 147.392 257.864 146.208C257.819 147.357 257.796 148.528 257.796 149.719C257.796 150.942 257.824 152.151 257.877 153.341C256.289 152.172 254.837 150.993 253.544 149.818ZM267.095 162.052C265.267 162.854 263.498 163.53 261.817 164.067C261.42 162.327 261.1 160.449 260.863 158.47C261.868 159.104 262.886 159.718 263.915 160.312C264.962 160.916 266.022 161.496 267.095 162.052V162.052ZM265.196 158.092C263.617 157.183 262.068 156.223 260.552 155.213C260.422 153.385 260.358 151.552 260.359 149.719C260.359 147.851 260.417 146.035 260.531 144.286C262.044 143.251 263.595 142.272 265.182 141.354V141.354C266.761 140.44 268.373 139.586 270.016 138.794C271.66 139.584 273.274 140.435 274.853 141.346L274.853 141.346C276.433 142.257 277.978 143.227 279.485 144.255C279.62 146.04 279.69 147.869 279.69 149.719V149.719C279.69 151.576 279.619 153.409 279.483 155.192C277.979 156.21 276.439 157.174 274.867 158.083C273.291 158.998 271.685 159.86 270.053 160.67C268.404 159.868 266.784 159.009 265.196 158.092V158.092ZM293.819 163.379C292.66 165.388 287.987 166.17 281.86 164.907C281.469 164.827 281.071 164.736 280.667 164.638C281.241 162.148 281.669 159.445 281.934 156.615C284.282 154.967 286.416 153.258 288.264 151.543C288.697 151.993 289.119 152.453 289.53 152.923C293.385 157.353 294.907 161.493 293.819 163.379V163.379ZM275.435 149.719C275.435 152.678 273.037 155.077 270.078 155.077C267.119 155.077 264.72 152.678 264.72 149.719C264.72 146.76 267.119 144.361 270.078 144.361C273.037 144.361 275.435 146.76 275.435 149.719V149.719Z" fill="#00D8FF" />
    </g>
    <path d="M120 30V60H180V0H120V30Z" fill="#007ACC" />
    <path d="M133.268 30.1992L133.249 32.6562H141.059V54.8468H146.583V32.6562H154.392V30.2468C154.392 28.9132 154.364 27.799 154.326 27.7704C154.297 27.7324 149.544 27.7132 143.783 27.7228L133.297 27.7514L133.268 30.199V30.1992ZM168.414 27.6816C169.938 28.0624 171.1 28.7386 172.166 29.8434C172.719 30.4341 173.538 31.5101 173.605 31.7672C173.623 31.8434 171.014 33.5958 169.433 34.5769C169.376 34.6148 169.147 34.3673 168.89 33.9863C168.119 32.8624 167.309 32.3768 166.071 32.291C164.252 32.1673 163.081 33.1195 163.09 34.71C163.09 35.1769 163.157 35.453 163.347 35.8338C163.747 36.6626 164.49 37.1578 166.824 38.1673C171.119 40.0148 172.957 41.2338 174.1 42.9673C175.376 44.9006 175.662 47.9864 174.795 50.2816C173.843 52.7768 171.481 54.472 168.157 55.0338C167.128 55.2148 164.69 55.1862 163.586 54.9863C161.176 54.5578 158.89 53.3672 157.481 51.8053C156.928 51.1959 155.852 49.6052 155.919 49.4911C155.947 49.4529 156.195 49.3005 156.471 49.1386C156.738 48.9863 157.747 48.4052 158.7 47.853L160.424 46.853L160.785 47.3864C161.29 48.1575 162.395 49.2148 163.062 49.5673C164.976 50.5767 167.605 50.434 168.9 49.272C169.452 48.7673 169.681 48.2435 169.681 47.472C169.681 46.7768 169.595 46.4721 169.233 45.9483C168.767 45.2815 167.814 44.7197 165.109 43.5483C162.014 42.2147 160.681 41.3864 159.462 40.072C158.757 39.3103 158.09 38.0911 157.814 37.072C157.586 36.2243 157.528 34.1006 157.709 33.2435C158.347 30.2529 160.605 28.1672 163.862 27.5482C164.919 27.3483 167.376 27.4245 168.414 27.6816V27.6816Z" fill="white" />
    <circle cx="150" cy="150" r="75" stroke="#131313" stroke-width="10" />
    <defs>
        <linearGradient id="paint0_linear_10_34" x1="77.7766" y1="259.054" x2="62.2617" y2="201.285" gradientUnits="userSpaceOnUse">
            <stop stop-color="#2298BD" />
            <stop offset="1" stop-color="#0ED7B5" />
        </linearGradient>
        <clipPath id="clip0_10_34">
            <rect width="60" height="60" fill="white" transform="translate(282.426 232) rotate(135)" />
        </clipPath>
        <clipPath id="clip1_10_34">
            <rect width="60" height="36.0938" fill="white" transform="translate(68.4521 266.021) rotate(-135)" />
        </clipPath>
        <clipPath id="clip2_10_34">
            <rect width="40" height="60" fill="white" transform="translate(247.071 31.6447) rotate(45)" />
        </clipPath>
        <clipPath id="clip3_10_34">
            <rect width="60" height="45" fill="white" transform="translate(22.8769 64.8033) rotate(-45)" />
        </clipPath>
        <clipPath id="clip4_10_34">
            <rect width="60" height="53.4375" fill="white" transform="translate(296.719 119.719) rotate(90)" />
        </clipPath>
    </defs>
</svg>