<svg width="294" height="284" viewBox="0 0 294 284" fill="none" xmlns="http://www.w3.org/2000/svg">
    <g clip-path="url(#clip0_12_107)">
        <path d="M65.9425 260.601L46.2429 245.624L62.9597 228.892L80.3885 246.124L65.9427 260.601L65.9425 260.601ZM64.9022 226.981L81.6278 210.229L96.5752 229.942L82.1078 244.411L64.9024 226.981L64.9022 226.981ZM43.8403 243.839L17.496 224.205L37.6718 204.03L60.8432 226.836L43.8405 243.839L43.8403 243.839ZM39.9634 201.727L60.0537 181.648L79.7982 207.882L62.9526 224.792L39.9634 201.727Z" fill="#00ADEF" />
    </g>
    <g clip-path="url(#clip1_12_107)">
        <path d="M258.574 67.2081C268.078 53.6356 264.779 34.9286 251.207 25.4252C237.641 15.9259 218.944 19.2185 209.437 32.7762L196.121 51.7934C193.972 54.8784 194.724 59.1209 197.806 61.2788L216.803 74.5807C230.374 84.0756 249.073 80.7769 258.574 67.2081Z" fill="#294172" />
        <path d="M254.348 36.296C247.991 31.8451 239.199 33.3952 234.748 39.752L230.464 45.8707L224.37 41.6041C218.014 37.1531 209.221 38.7037 204.77 45.0602C200.32 51.4166 201.87 60.2093 208.226 64.6602C214.583 69.1111 223.375 67.5605 227.826 61.2042L232.111 55.0853L238.204 59.3519C244.561 63.8028 253.353 62.2526 257.804 55.896C262.255 49.5393 260.705 40.7469 254.348 36.296V36.296ZM222.434 57.4287C220.065 60.8119 215.385 61.6371 212.002 59.268C208.619 56.8989 207.793 52.219 210.162 48.8358C212.531 45.4523 217.211 44.6272 220.595 46.9962L226.688 51.2629L226.676 51.2799L226.719 51.3098L222.434 57.4287V57.4287ZM241.98 53.9599L235.886 49.6933L235.898 49.676L235.856 49.6463L240.14 43.5276C242.509 40.1442 247.189 39.319 250.572 41.688C253.956 44.0569 254.781 48.737 252.412 52.1204C250.043 55.5038 245.363 56.3289 241.98 53.9599V53.9599Z" fill="#3C6EB4" />
        <path d="M256.651 38.4297C255.92 37.5694 255.309 36.9793 254.343 36.3027C247.974 31.8427 239.193 33.391 234.734 39.7603L230.453 45.8736L225.623 42.4913C224.116 41.4366 222.07 41.7679 221.019 43.2721C219.973 44.7661 220.344 46.7976 221.834 47.8411L225.833 50.6422C226.308 50.9747 226.424 51.6283 226.092 52.1023L222.388 57.3922C220.031 60.7461 215.402 61.5589 212.044 59.2075C210.907 58.411 210.729 58.0648 209.953 57.5211C208.321 56.3788 206.464 56.7081 205.411 58.2118C204.541 59.4559 204.858 61.2717 205.923 62.5264C206.654 63.3867 207.265 63.9769 208.231 64.6535C214.601 69.1135 223.381 67.5652 227.841 61.1958L232.121 55.0826L236.952 58.465C238.458 59.5196 240.504 59.1883 241.555 57.6841C242.602 56.1899 242.23 54.1586 240.74 53.1151L236.741 50.314C236.513 50.1547 236.358 49.9113 236.309 49.6375C236.261 49.3636 236.323 49.0817 236.482 48.8537L240.186 43.5638C242.543 40.2099 247.172 39.3971 250.53 41.7485C251.668 42.545 251.845 42.8914 252.621 43.4352C254.253 44.5774 256.11 44.2479 257.163 42.7445C258.033 41.5001 257.716 39.6844 256.651 38.4297Z" fill="white" />
    </g>
    <g clip-path="url(#clip2_12_107)">
        <path d="M81.1006 28.7944C92.7867 40.4806 92.7869 59.4284 81.1001 71.1153C69.4129 82.8024 50.4652 82.8021 38.7791 71.1159C27.0923 59.4291 27.0924 40.4812 38.7792 28.7944C50.4662 17.1074 69.4138 17.1076 81.1006 28.7944Z" fill="#DD4814" />
        <path d="M42.7256 61.5181C41.1646 63.0791 41.1646 65.6084 42.7256 67.1694C44.2857 68.7296 46.8152 68.7297 48.3762 67.1687C49.9366 65.6084 49.9364 63.0789 48.3762 61.5187C46.8152 59.9578 44.2859 59.9578 42.7256 61.5181ZM75.7375 54.1868C75.1669 56.3185 76.4302 58.509 78.5613 59.0789C80.6924 59.6505 82.8825 58.3868 83.4534 56.2551C84.0249 54.1241 82.7613 51.9339 80.6294 51.3628C78.4993 50.7922 76.3082 52.0568 75.7375 54.1868ZM51.688 58.207C48.8961 55.4151 47.8162 51.5616 48.4445 47.9463L42.9196 46.5523C42.1003 50.6763 42.7857 55.0403 44.9785 58.7617C46.598 58.5973 48.2766 59.1344 49.5184 60.3762C50.7596 61.6174 51.2967 63.296 51.1325 64.9157C54.8535 67.1101 59.2178 67.7959 63.3428 66.9755L61.9479 61.4496C58.3333 62.0787 54.48 60.999 51.688 58.207V58.207ZM51.6871 41.7023C55.9982 37.3912 62.8405 37.1595 67.4272 41.0038L71.3934 36.9189C68.0835 34.0047 63.93 32.5705 59.7868 32.605C59.1184 34.0851 57.8153 35.2639 56.1249 35.718C54.4304 36.1724 52.7109 35.8002 51.3915 34.8491C50.028 35.6215 48.7751 36.5745 47.6667 37.6822C45.7781 39.567 44.3512 41.8632 43.4977 44.3912L48.9787 45.9461C49.5606 44.3506 50.4851 42.9021 51.6871 41.7023V41.7023ZM68.192 58.2072C66.9923 59.4091 65.5438 60.3335 63.9484 60.9155L65.5029 66.3961C68.0316 65.5437 70.3285 64.1171 72.2134 62.2282C73.3212 61.1199 74.2738 59.8666 75.0452 58.5025C74.0941 57.1831 73.723 55.4644 74.1761 53.7693C74.6301 52.0767 75.8092 50.7756 77.2892 50.1074C77.3238 45.964 75.8894 41.8107 72.9756 38.5004L68.8896 42.4678C72.7358 47.0548 72.5031 53.8957 68.1918 58.207L68.192 58.2072ZM55.7056 34.1569C57.8372 33.5858 59.1022 31.3967 58.5304 29.2657C57.9596 27.1338 55.7702 25.8691 53.6383 26.4399C51.5073 27.0117 50.2435 29.2016 50.8141 31.3337C51.3854 33.4638 53.5755 34.7275 55.7056 34.1569Z" fill="white" />
    </g>
    <g clip-path="url(#clip3_12_107)">
        <path d="M274.315 225.596C274.523 225.375 274.675 225.065 274.73 224.596C275.619 224.202 276.328 223.666 276.38 222.605C277.351 221.857 277.4 221.348 277.343 220.868C277.536 220.683 278.949 219.651 278.673 218.253C280.249 217.01 279.699 215.569 278.265 215.146C278.108 214.412 277.966 213.674 276.443 213.497C276.208 212.786 275.547 212.42 274.365 212.36C273.848 211.547 273.088 211.369 272.2 211.525C271.388 210.517 269.926 210.92 269.459 211.01C268.822 210.587 268.099 210.309 266.757 211.097C265.791 210.482 265.015 210.986 264.229 211.44C265.087 208.201 265.277 204.878 261.421 201.046L261.186 200.211C262.107 196.434 259.629 189.73 252.594 189.304C251.21 188.351 250.009 187.874 248.758 187.268C244.535 184.009 239.637 185.403 238.6 186.026C236.458 186.315 234.284 186.732 231.916 187.868C228.561 187.817 226.122 188.957 224.323 190.757C224.297 190.784 221.303 195.074 221.354 198.43C220.218 200.798 219.802 202.972 219.512 205.114C218.889 206.151 217.495 211.049 220.755 215.272C221.361 216.523 221.838 217.724 222.79 219.108C223.217 226.143 229.921 228.621 233.698 227.701L234.533 227.935C238.365 231.791 241.688 231.601 244.927 230.743C244.473 231.529 243.969 232.305 244.584 233.271C243.796 234.613 244.074 235.336 244.497 235.973C244.407 236.44 244.004 237.902 245.012 238.714C244.856 239.602 245.034 240.362 245.847 240.879C245.908 242.061 246.273 242.722 246.985 242.957C247.16 244.479 247.899 244.621 248.632 244.779C249.056 246.212 250.497 246.763 251.74 245.186C253.137 245.462 254.17 244.049 254.355 243.856C254.835 243.913 255.345 243.864 256.092 242.893C257.153 242.841 257.689 242.133 258.083 241.243C259.447 241.082 259.469 240.096 259.863 239.338C261.087 238.717 260.885 238.093 261.17 237.471C262.389 236.677 262.232 235.909 262.226 234.938L262.798 234.388C263.421 231.975 262.354 229.4 261.685 228.196C262.889 228.865 265.463 229.934 267.874 229.311L268.424 228.739C269.396 228.745 270.165 228.902 270.958 227.683C271.58 227.398 272.203 227.6 272.825 226.375C273.323 226.117 273.919 226.018 274.316 225.596L266.44 196.885" fill="black" />
        <path d="M273.402 218.64C267.299 220.59 263.279 221.252 260.566 221.104C258.59 217.815 261.896 214.268 263.223 213.089C263.086 213.465 263.015 213.823 263.159 214.118C263.696 214.027 264.611 212.713 265.827 212.372C265.59 212.733 265.51 212.933 265.591 213.293C266.561 212.792 267.555 212.203 268.409 212.125C268.154 212.373 267.867 212.555 267.766 213.111C268.779 212.807 269.763 212.386 270.852 212.382C270.52 212.731 270.148 213.093 270.166 213.325C271.142 213.096 272.066 213.003 272.941 213.036C272.407 213.455 272.255 213.706 272.223 213.904C273.145 213.915 274.116 213.732 274.966 214.032C274.49 214.264 274.12 214.541 274.066 214.954C274.57 215.148 275.439 214.691 276.638 215.125C276.229 215.461 275.789 215.811 275.791 215.972C276.668 216.503 277.361 216.602 278.062 216.722C277.277 217.531 276.054 218.723 276.176 218.736L277.172 218.747C276.604 219.735 275.564 220.288 274.805 220.686C274.75 221.151 275.273 221.145 275.855 221.093C275.105 221.666 274.355 222.112 273.605 222.443C273.577 222.993 274.314 222.777 274.805 222.807C273.589 223.636 272.883 223.796 272.18 223.954C272.167 224.566 272.715 224.526 273.187 224.575C272.13 225.061 271.365 225.089 270.583 225.143C270.633 225.476 270.555 225.835 271.28 226.033C270.417 226.264 269.633 226.305 268.912 226.193C268.789 226.748 269.22 226.905 269.49 227.179C268.459 227.285 267.605 227.154 266.683 227.115C266.659 227.269 266.801 227.566 267.079 227.983C264.406 228.023 259.174 226.625 260.64 222.529C264.959 222.114 269.205 220.706 273.402 218.638L273.402 218.64M252.036 240.006C253.986 233.903 254.648 229.883 254.5 227.17C251.21 225.195 247.664 228.501 246.485 229.827C246.861 229.69 247.218 229.619 247.514 229.763C247.423 230.301 246.108 231.216 245.767 232.431C246.128 232.194 246.328 232.115 246.689 232.195C246.188 233.165 245.598 234.159 245.521 235.013C245.769 234.759 245.951 234.471 246.507 234.37C246.203 235.384 245.781 236.368 245.778 237.456C246.127 237.124 246.489 236.752 246.721 236.77C246.492 237.746 246.398 238.67 246.431 239.545C246.851 239.011 247.101 238.86 247.299 238.828C247.31 239.75 247.128 240.72 247.428 241.57C247.66 241.095 247.937 240.724 248.349 240.67C248.544 241.174 248.086 242.044 248.521 243.242C248.857 242.833 249.207 242.393 249.367 242.395C249.899 243.273 249.998 243.966 250.117 244.667C250.926 243.882 252.119 242.659 252.132 242.781L252.142 243.778C253.131 243.208 253.684 242.169 254.082 241.41C254.546 241.355 254.541 241.878 254.489 242.459C255.062 241.71 255.508 240.959 255.839 240.21C256.388 240.181 256.173 240.918 256.203 241.41C257.031 240.193 257.192 239.488 257.35 238.784C257.961 238.771 257.921 239.32 257.971 239.792C258.456 238.735 258.485 237.97 258.539 237.188C258.872 237.238 259.23 237.16 259.428 237.884C259.66 237.022 259.7 236.238 259.589 235.517C260.143 235.394 260.301 235.825 260.575 236.095C260.681 235.064 260.549 234.211 260.51 233.288C260.664 233.264 260.962 233.406 261.378 233.684C261.419 231.011 260.02 225.778 255.925 227.245C255.512 231.563 254.104 235.809 252.035 240.006L252.036 240.006" fill="#75A928" />
        <path d="M231.037 207.394C228.567 204.952 228.713 200.802 231.364 198.125C234.015 195.448 238.167 195.258 240.637 197.701C240.653 197.716 240.668 197.732 240.684 197.747C243.154 200.19 243.008 204.34 240.357 207.016C237.706 209.693 233.555 209.883 231.084 207.441L231.037 207.394M251.357 212.486C248.049 213.175 244.721 210.567 243.923 206.661C243.126 202.755 245.161 199.03 248.468 198.34C251.777 197.651 255.105 200.259 255.902 204.165C256.7 208.071 254.665 211.796 251.357 212.486ZM246.2 218.117C246.889 214.809 244.281 211.481 240.375 210.683C236.469 209.885 232.744 211.92 232.055 215.228C231.366 218.536 233.974 221.865 237.88 222.662C241.785 223.46 245.511 221.425 246.2 218.117ZM259.205 200.356C257.626 203.092 249.55 192.158 252.085 191.182C255.57 190.804 260.741 194.731 259.205 200.356M234.387 225.411C237.124 223.831 226.189 215.755 225.213 218.29C224.835 221.775 228.763 226.947 234.387 225.411ZM248.797 225.158C245.702 229.51 240.391 230.396 236.479 226.233C235.053 224.563 249.939 223.555 248.797 225.158M259.205 214.987C263.557 211.892 264.443 206.581 260.28 202.668C258.61 201.243 257.602 216.129 259.205 214.987M254.797 221.278C257.078 219.114 257.503 215.273 256.518 214.278C255.321 213.068 252.326 213.6 249.676 216.187C246.983 218.842 246.281 221.554 247.515 222.804C248.912 224.221 252.847 223.272 254.797 221.278L254.797 221.278M229.987 196.739C228.134 198.761 224.825 200.653 223.879 199.718C222.934 198.837 223.262 194.384 225.615 192.111C227.908 189.611 232.323 189.328 233.008 190.075C234.094 191.089 231.96 194.862 229.987 196.739M242.716 195.154C239.674 194.871 236.125 192.58 236.416 190.568C236.848 188.822 239.763 186.447 244.344 187.268C247.879 188.267 250.022 190.736 249.809 192.304C249.288 194.446 246.136 195.408 242.716 195.154L242.716 195.154M229.204 209.719C228.949 206.478 226.591 202.458 224.475 202.52C222.636 202.763 219.953 205.67 220.753 210.599C221.178 214.022 224.893 216.733 226.603 216.73C228.858 216.441 229.425 213.356 229.205 209.72L229.204 209.719" fill="#BC1142" />
    </g>
    <path d="M0 167L0 107H60L60 167H0ZM52.5 161.744V139.244H48.75V161.744H52.5ZM17.2444 158.748V157.996C17.0025 156.249 15.4969 154.998 13.4944 154.998H7.5V157.752H13.7494C14.745 157.752 15 157.994 15 158.748C15 159.502 14.745 159.999 14.2481 160.254L15.7538 162.001C17.0044 161.249 17.5012 159.999 17.2462 158.748H17.2444ZM17.2444 146.248H15V151.503H13.4944V147.001H11.25V151.503H9.74438V146.248H7.5V154.244H17.4994V146.248H17.2444ZM17.2444 142.994V140.251H9.74438V137.253H7.5L7.5 145.749H9.74438V142.751H17.2444V142.994ZM26.7469 152.996C25.4963 152.996 24.5025 153.747 24.5025 154.998C24.2475 154.002 23.2519 153.506 22.245 153.506C21.7481 153.506 20.9944 153.747 20.4975 154.002C19.7456 154.754 19.5019 155.75 19.5019 156.746V161.746H29.2462V156.746C29.2462 154.501 28.2506 152.996 26.7469 152.996V152.996ZM21.7481 159.245V157.498C21.7481 156.746 22.0031 156.247 22.5 156.247C23.2519 156.247 23.4956 156.744 23.4956 157.498V159.245H21.7481ZM27.0019 159.245H25.2544V157.256C25.2544 156.249 25.4963 155.75 25.995 156.005C26.505 156.005 27.0019 156.502 27.0019 157.256V159.245ZM19.5019 140.75L28.2525 144.5L25.995 146.006C25.4981 144.755 24.2475 144.003 22.9969 144.003C22.245 144.003 21.2494 144.245 20.7525 144.755C19.7456 145.751 19.5019 146.999 19.5019 147.995V152.752H29.2462V149.998H26.2481V148.747L29.2462 146.744V142.254L27.4988 141.502L27.4988 137.752L29.2462 137V134.002L19.2469 137.994V140.748L19.5019 140.75ZM24.2475 148.25V149.998H22.0031V148.25C22.0031 147.498 22.245 146.744 23.2538 146.744C23.7506 146.744 24.2494 147.254 24.2494 148.25H24.2475ZM25.4981 138.506V140.495L22.755 139.499L25.4981 138.506ZM29.2481 133.747V131.004H19.5038V133.747H29.2481ZM24.7444 123.747L19.5019 127.753V130.252H29.2462V127.497H24.0038L29.5013 123.251V121.006H19.5019V123.749L24.7444 123.747ZM23.2519 116.006C22.9969 117.256 22.755 117.753 22.245 117.753C22.0031 117.753 21.7481 117.498 21.7481 116.746C21.7481 115.751 22.245 114.757 22.755 114.003L20.7525 112.497C19.7456 113.748 19.5019 114.997 19.5019 116.503C19.5019 118.747 20.9944 120.253 22.755 120.253C24.7444 120.253 25.2544 118.747 25.7531 116.503C25.995 115.252 26.25 114.755 26.7487 114.755C27.2475 114.755 27.5006 115.252 27.5006 116.006C27.5006 117.256 27.0038 118.25 26.25 119.246L27.9975 120.751C29.0044 119.501 29.5031 117.753 29.5031 116.249C29.5031 113.75 28.2525 112.258 26.25 112.258C24.5025 112.258 23.7506 113.75 23.2519 116.008V116.006Z" fill="black" />
    <path d="M284.569 161.394L289.774 150.582C290.068 149.972 290.165 149.285 290.052 148.617C289.938 147.948 289.62 147.332 289.14 146.853L256.875 111.462C256.485 111.033 255.941 110.776 255.362 110.748C254.783 110.72 254.216 110.923 253.787 111.312C253.736 111.359 253.688 111.406 253.643 111.457L251.018 114.346C250.674 114.724 250.473 115.21 250.451 115.72C250.428 116.23 250.585 116.732 250.894 117.138L283.219 159.766C283.463 160.088 283.613 160.472 283.651 160.874C283.689 161.277 283.614 161.682 283.434 162.044C283.254 162.406 282.977 162.711 282.634 162.924C282.29 163.137 281.894 163.25 281.49 163.25H281.616C282.233 163.25 282.837 163.076 283.36 162.747C283.882 162.419 284.301 161.95 284.569 161.394V161.394Z" fill="#0065A9" />
    <path d="M243.431 161.394L238.224 150.582C237.931 149.972 237.834 149.285 237.948 148.617C238.061 147.949 238.379 147.333 238.858 146.853L271.125 111.462C271.515 111.033 272.059 110.776 272.638 110.748C273.217 110.72 273.784 110.923 274.213 111.312C274.264 111.359 274.312 111.406 274.357 111.457L276.982 114.346C277.328 114.724 277.529 115.211 277.552 115.723C277.574 116.234 277.417 116.737 277.106 117.144L244.781 159.766C244.537 160.088 244.387 160.472 244.349 160.874C244.311 161.277 244.386 161.682 244.566 162.044C244.746 162.406 245.023 162.711 245.366 162.924C245.71 163.137 246.106 163.25 246.51 163.25H246.375C245.76 163.248 245.157 163.073 244.637 162.745C244.116 162.416 243.698 161.948 243.431 161.394V161.394Z" fill="#007ACC" />
    <path d="M238.224 150.582C237.931 149.972 237.834 149.285 237.948 148.617C238.061 147.949 238.379 147.333 238.858 146.853C238.592 147.122 238.412 147.464 238.34 147.835C238.267 148.207 238.306 148.591 238.451 148.94C238.596 149.29 238.841 149.589 239.156 149.799C239.47 150.01 239.839 150.123 240.218 150.125H287.783C288.163 150.125 288.534 150.013 288.85 149.802C289.166 149.591 289.413 149.29 289.558 148.939C289.703 148.588 289.741 148.202 289.667 147.829C289.593 147.456 289.409 147.114 289.14 146.846C289.619 147.325 289.938 147.941 290.052 148.609C290.166 149.277 290.069 149.964 289.776 150.575L284.578 161.384C284.312 161.942 283.893 162.413 283.371 162.743C282.848 163.073 282.243 163.249 281.625 163.25H246.375C245.757 163.25 245.152 163.076 244.63 162.747C244.107 162.418 243.687 161.948 243.42 161.392L238.224 150.582Z" fill="#1F9CF0" />
    <g clip-path="url(#clip4_12_107)">
        <path d="M189.862 224.136L169.895 254.067L189.862 284H174.886L154.919 254.067L174.886 224.136H189.862Z" fill="#453A62" />
        <path d="M169.895 224.136L149.927 254.067L169.895 284H154.919L114.986 224.136H129.959L142.438 242.842L154.92 224.136H169.895Z" fill="#5E5086" />
        <path d="M121.64 241.596L128.296 251.574H105V241.595H121.64V241.596ZM131.623 256.561L138.279 266.539H105V256.561H131.623Z" fill="#8F4E8B" />
    </g>
    <g clip-path="url(#clip5_12_107)">
        <path d="M146.788 0.0140381C134.126 0.0140381 134.916 5.50525 134.916 5.50525L134.93 11.1943H147.014V12.9023H130.131C130.131 12.9023 122.028 11.9834 122.028 24.7597C122.028 37.5365 129.101 37.0834 129.101 37.0834H133.321V31.1545C133.321 31.1545 133.094 24.0822 140.281 24.0822H152.265C152.265 24.0822 158.999 24.191 158.999 17.5746V6.63474C158.999 6.63474 160.021 0.0140381 146.788 0.0140381ZM140.125 3.83982C140.411 3.83956 140.694 3.89561 140.958 4.00477C141.221 4.11392 141.461 4.27404 141.663 4.47595C141.865 4.67786 142.025 4.9176 142.134 5.18146C142.243 5.44531 142.299 5.7281 142.299 6.01365C142.299 6.29919 142.243 6.58198 142.134 6.84584C142.025 7.1097 141.865 7.34944 141.663 7.55135C141.461 7.75326 141.221 7.91337 140.958 8.02253C140.694 8.13168 140.411 8.18773 140.125 8.18748C139.84 8.18773 139.557 8.13168 139.293 8.02253C139.029 7.91337 138.79 7.75326 138.588 7.55135C138.386 7.34944 138.226 7.1097 138.117 6.84584C138.007 6.58198 137.951 6.29919 137.952 6.01365C137.951 5.7281 138.007 5.44531 138.117 5.18146C138.226 4.9176 138.386 4.67786 138.588 4.47595C138.79 4.27404 139.029 4.11392 139.293 4.00477C139.557 3.89561 139.84 3.83956 140.125 3.83982V3.83982Z" fill="url(#paint0_linear_12_107)" />
        <path d="M147.148 49.634C159.81 49.634 159.02 44.1428 159.02 44.1428L159.006 38.4539H146.922V36.7459H163.805C163.805 36.7459 171.908 37.6649 171.908 24.8881C171.908 12.1115 164.835 12.5647 164.835 12.5647H160.615V18.4934C160.615 18.4934 160.842 25.5656 153.655 25.5656H141.671C141.671 25.5656 134.937 25.4569 134.937 32.0735V43.0135C134.937 43.0135 133.915 49.634 147.148 49.634H147.148ZM153.811 45.8086C153.525 45.8089 153.242 45.7528 152.979 45.6437C152.715 45.5345 152.475 45.3744 152.273 45.1725C152.071 44.9706 151.911 44.7308 151.802 44.467C151.693 44.2031 151.637 43.9203 151.637 43.6348C151.637 43.3492 151.693 43.0664 151.802 42.8025C151.911 42.5387 152.071 42.2989 152.273 42.097C152.475 41.895 152.715 41.7349 152.979 41.6257C153.242 41.5166 153.525 41.4605 153.811 41.4608C154.096 41.4605 154.379 41.5166 154.643 41.6257C154.907 41.7349 155.147 41.895 155.348 42.0969C155.55 42.2988 155.71 42.5385 155.82 42.8024C155.929 43.0663 155.985 43.349 155.985 43.6346C155.985 43.9201 155.929 44.2029 155.82 44.4668C155.71 44.7306 155.55 44.9704 155.348 45.1723C155.147 45.3742 154.907 45.5343 154.643 45.6435C154.379 45.7526 154.096 45.8087 153.811 45.8084V45.8086Z" fill="url(#paint1_linear_12_107)" />
    </g>
    <circle cx="147" cy="137" r="75" stroke="#131313" stroke-width="10" />
    <defs>
        <linearGradient id="paint0_linear_12_107" x1="126.822" y1="4.47705" x2="151.54" y2="28.9491" gradientUnits="userSpaceOnUse">
            <stop stop-color="#387EB8" />
            <stop offset="1" stop-color="#366994" />
        </linearGradient>
        <linearGradient id="paint1_linear_12_107" x1="141.994" y1="20.1916" x2="168.539" y2="45.2854" gradientUnits="userSpaceOnUse">
            <stop stop-color="#FFE052" />
            <stop offset="1" stop-color="#FFC331" />
        </linearGradient>
        <clipPath id="clip0_12_107">
            <rect width="60" height="60.2344" fill="white" transform="translate(59.9171 266.626) rotate(-135)" />
        </clipPath>
        <clipPath id="clip1_12_107">
            <rect width="60" height="60" fill="white" transform="translate(226.633 8.21814) rotate(35)" />
        </clipPath>
        <clipPath id="clip2_12_107">
            <rect width="60" height="60" fill="white" transform="translate(17.5736 50) rotate(-45)" />
        </clipPath>
        <clipPath id="clip3_12_107">
            <rect width="46.9725" height="60" fill="white" transform="translate(283.307 216.606) rotate(135)" />
        </clipPath>
        <clipPath id="clip4_12_107">
            <rect width="84.8619" height="60" fill="white" transform="translate(189.862 284) rotate(-180)" />
        </clipPath>
        <clipPath id="clip5_12_107">
            <rect width="50" height="49.8047" fill="white" transform="translate(122)" />
        </clipPath>
    </defs>
</svg>
    