<svg width="300" height="315" viewBox="0 0 300 315" fill="none" xmlns="http://www.w3.org/2000/svg">
    <g clip-path="url(#clip0_11_74)">
        <path d="M83.5218 58.697L46.4756 58.6996C45.9682 58.6995 45.4658 58.7994 44.997 58.9935C44.5282 59.1876 44.1022 59.4722 43.7435 59.8309C43.3847 60.1897 43.1001 60.6157 42.906 61.0845C42.7119 61.5533 42.612 62.0557 42.6122 62.5631L42.6122 70.2529L52.3702 70.2529C52.7492 69.481 53.3375 68.8312 54.0681 68.3777C54.7986 67.9241 55.642 67.6851 56.5018 67.6878C57.3617 67.6906 58.2035 67.9351 58.9311 68.3933C59.6587 68.8515 60.2429 69.5051 60.6169 70.2794L70.0223 70.2821C70.4729 69.3416 71.2304 68.5826 72.17 68.1301C73.1096 67.6776 74.1752 67.5586 75.1915 67.7926C76.2078 68.0266 77.1141 68.5997 77.7611 69.4175C78.4082 70.2354 78.7575 71.2492 78.7515 72.292C78.7548 73.3571 78.3881 74.3902 77.7142 75.215C77.0404 76.0398 76.101 76.605 75.0567 76.8141C74.0124 77.0232 72.9278 76.8632 71.9883 76.3615C71.0488 75.8598 70.3127 75.0475 69.9056 74.0633L61.1366 74.0607L72.6792 85.6033C73.6753 85.2668 74.7565 85.2819 75.7428 85.646C76.7291 86.0101 77.5607 86.7013 78.0992 87.6042C78.6377 88.5072 78.8504 89.5674 78.702 90.6082C78.5535 91.649 78.0528 92.6075 77.2834 93.3239C76.5139 94.0403 75.5222 94.4713 74.4734 94.5451C73.4247 94.619 72.3823 94.3312 71.5201 93.7296C70.6578 93.1281 70.0278 92.2492 69.735 91.2395C69.4421 90.2298 69.5042 89.1502 69.9109 88.1807L58.2622 76.532C57.7025 76.7663 57.1021 76.8875 56.4953 76.8887C55.8886 76.8898 55.2877 76.7709 54.7271 76.5387C54.1666 76.3065 53.6576 75.9656 53.2294 75.5358C52.8012 75.1059 52.4624 74.5956 52.2323 74.0341L42.6148 74.0315L42.6148 99.4343C42.6147 99.9417 42.7145 100.444 42.9086 100.913C43.1028 101.382 43.3873 101.808 43.7461 102.166C44.1049 102.525 44.5308 102.81 44.9996 103.004C45.4684 103.198 45.9709 103.298 46.4783 103.298L83.5271 103.298C84.0345 103.298 84.537 103.198 85.0057 103.004C85.4745 102.81 85.9005 102.525 86.2593 102.166C86.6181 101.808 86.9026 101.382 87.0967 100.913C87.2909 100.444 87.3907 99.9417 87.3906 99.4343V62.5604C87.3898 61.536 86.9826 60.5538 86.2582 59.8294C85.5338 59.105 84.5515 58.6977 83.5271 58.697" fill="#F24E1E" />
    </g>
    <g clip-path="url(#clip1_11_74)">
        <path d="M224.438 247.438C224.939 246.937 225.563 246.577 226.247 246.394L233.474 244.542C234.531 244.243 234.334 244.707 234.189 245.01C233.691 245.953 233.312 246.954 233.063 247.991C233.034 248.07 232.985 248.14 232.922 248.195C232.858 248.25 232.782 248.287 232.7 248.304L227.139 249.72C227.04 249.751 226.949 249.805 226.876 249.879C226.802 249.952 226.748 250.042 226.717 250.142L220.966 271.596C220.941 271.698 220.942 271.805 220.97 271.906C220.998 272.007 221.052 272.099 221.126 272.173L236.832 287.879C236.908 287.954 237.001 288.009 237.104 288.038C237.206 288.067 237.315 288.068 237.418 288.043L258.866 282.285C258.966 282.257 259.058 282.204 259.131 282.13C259.205 282.056 259.258 281.965 259.286 281.865L265.034 260.422C265.06 260.319 265.06 260.211 265.032 260.108C265.004 260.005 264.951 259.911 264.876 259.835L249.177 244.136C249.103 244.062 249.01 244.009 248.909 243.983C248.808 243.957 248.701 243.958 248.6 243.986L242.716 245.564C239.684 246.575 239.636 249.004 240.832 250.2L256.332 265.7C256.438 265.806 256.497 265.949 256.497 266.098C256.497 266.247 256.438 266.39 256.332 266.496L254.609 268.219C254.503 268.325 254.36 268.384 254.211 268.384C254.062 268.384 253.919 268.325 253.813 268.219L238.312 252.718C235.614 250.02 235.538 247.006 238.097 244.447C239.182 243.324 240.564 242.533 242.081 242.166L247.708 240.641C248.395 240.46 249.117 240.462 249.803 240.647C250.489 240.832 251.114 241.194 251.616 241.696L267.316 257.395C267.82 257.897 268.183 258.523 268.369 259.21C268.555 259.897 268.557 260.62 268.375 261.308L262.625 282.766C262.426 283.444 262.061 284.061 261.561 284.561C261.061 285.061 260.444 285.426 259.766 285.625L238.309 291.374C237.623 291.555 236.901 291.554 236.215 291.369C235.53 291.185 234.904 290.824 234.402 290.322L218.696 274.617C218.195 274.113 217.833 273.488 217.649 272.802C217.464 272.116 217.461 271.394 217.642 270.707L223.391 249.25C223.575 248.564 223.936 247.94 224.438 247.438V247.438Z" fill="#83CD29" />
        <path d="M242.991 260.831C243.096 260.936 243.155 261.079 243.155 261.228C243.155 261.378 243.096 261.521 242.991 261.626L241.231 263.385C241.137 263.479 241.013 263.536 240.88 263.547C240.748 263.558 240.616 263.521 240.507 263.444C238.451 261.918 236.753 261.81 233.156 265.407C230.291 268.272 229.718 270.142 231.239 271.663C232.115 272.539 233.112 272.844 238.002 268.827C242.093 265.472 245.219 263.995 248.195 266.971C250.939 269.715 250.263 273.666 246.385 277.544C242.027 281.902 238.357 282.546 234.838 279.574C234.78 279.524 234.732 279.462 234.699 279.393C234.665 279.324 234.646 279.249 234.642 279.172C234.639 279.095 234.651 279.019 234.678 278.947C234.706 278.875 234.747 278.81 234.801 278.754L236.572 276.983C236.662 276.896 236.779 276.841 236.904 276.827C237.029 276.814 237.155 276.842 237.262 276.909C239.569 278.37 241.206 277.936 243.99 275.152C247.119 272.023 246.393 270.57 245.576 269.753C244.587 268.764 243.868 268.905 239.086 272.571C234.353 276.198 231.585 277.402 228.647 274.464C225.682 271.5 226.456 267.331 230.767 263.021C236.718 257.053 240.698 258.538 242.991 260.831V260.831Z" fill="#83CD29" />
    </g>
    <g clip-path="url(#clip2_11_74)">
        <path d="M31.3246 231.903C31.7294 234.143 34.4151 237.516 37.2423 239.426C35.2242 241.995 34.4848 245.268 34.9109 249.249L35.2604 251.433L37.4606 250.996C40.2821 250.377 43.241 248.52 45.3692 246.062C46.1165 245.204 47.2744 243.496 47.7095 241.408C48.9392 241.72 51.11 242.745 53.2031 244.838L93.0289 284.664L93.5977 284.315C96.2765 282.408 103.443 275.241 104.43 265.221C105.2 257.62 102.253 250.431 95.588 243.766C81.1562 229.334 63.5325 225.585 45.9645 233.128C44.0388 231.087 39.74 226.903 33.2916 229.055C33.1219 229.114 32.7825 229.234 31.5372 229.708L30.8582 229.946L31.3246 231.903ZM40.5513 273.464L46.6103 279.523L52.3434 273.79L46.2844 267.731L40.5513 273.464ZM47.4311 266.585L53.49 272.644L59.2231 266.91L53.1641 260.852L47.4308 266.585L47.4311 266.585ZM54.592 273.745L60.6509 279.804L66.384 274.071L60.325 268.012L54.5917 273.746L54.592 273.745ZM61.7529 280.906L67.812 286.966L73.5451 281.232L67.4859 275.173L61.7526 280.907L61.7529 280.906ZM75.7935 281.188L81.8526 287.247L87.5857 281.514L81.5268 275.455L75.7935 281.188L75.7935 281.188ZM68.6326 274.027L74.6918 280.086L80.4248 274.353L74.3657 268.294L68.6324 274.027L68.6326 274.027ZM61.4717 266.866L67.5306 272.925L73.2637 267.192L67.2048 261.133L61.4715 266.866L61.4717 266.866ZM54.3106 259.705L60.37 265.764L66.1031 260.031L60.0436 253.972L54.3103 259.705L54.3106 259.705ZM47.1497 252.544L53.2091 258.603L58.9422 252.87L52.8828 246.811L47.1495 252.544L47.1497 252.544Z" fill="#2396ED" />
    </g>
    <g clip-path="url(#clip3_11_74)">
        <path d="M246.447 71.6586L244.503 73.7799L240.437 75.0174L233.896 77.1387L229.83 80.3207L226.295 87.0382L227.886 92.695L233.366 98.1751L242.381 99.4125L250.778 95.6118L251.927 83.8562L254.049 78.7297L246.447 71.6586Z" fill="#ECEFF1" />
        <path d="M253.96 89.2478C254.579 85.8007 254.667 83.4142 256.612 80.2322C258.556 77.0502 258.645 78.5528 260.324 75.8128C261.208 74.3986 261.562 73.1612 261.738 72.1005C261.827 70.9514 261.562 69.9792 261.296 69.5372C260.943 68.2998 259.794 65.7365 256.258 64.6759C252.634 63.5268 250.248 66.4436 245.298 72.2773C244.945 72.6308 244.414 72.9844 243.884 73.1612C242.735 73.6031 241.409 73.6915 240.26 73.7799C238.757 74.045 237.255 74.3102 235.841 74.8405C232.747 75.8128 229.211 77.4038 228.504 78.6412C229.035 78.9948 226.118 93.0485 225.941 93.2253C226.383 93.4905 227.886 94.9931 229.211 96.3189C231.156 98.0867 232.305 99.0589 233.454 100.915C233.719 100.65 233.896 100.296 234.161 100.031C234.691 99.5009 235.222 99.1473 235.929 98.617C236.459 98.2634 236.99 97.9099 237.608 97.468C235.929 97.3796 233.454 96.6725 231.686 95.435C230.095 94.3744 228.328 91.7227 228.593 89.3362C228.681 89.4246 228.858 89.6014 229.035 89.6014C229.388 89.7782 229.742 89.9549 230.007 89.8666C230.714 89.6898 230.979 89.0711 231.068 88.6291C231.156 88.1872 230.802 85.8891 230.714 84.74C230.626 83.591 230.537 82.9723 230.537 82.2652V80.8509C230.537 80.4974 230.626 80.2322 230.626 80.0554C230.891 79.4367 231.333 78.818 232.128 78.1993C233.189 77.3154 234.338 76.8735 235.664 76.4315C236.194 76.2548 237.343 75.9896 237.343 75.9896C237.343 75.9896 232.128 78.1993 231.775 80.1438C231.775 80.1438 233.012 79.0832 234.515 78.2877C235.575 77.7574 237.166 77.0502 238.315 76.9619C239.464 76.8735 243.088 75.9012 244.591 74.5754C245.21 73.9567 245.917 73.4263 246.359 72.9844C246.359 72.2773 253.43 77.5806 252.811 78.9064C252.546 79.3483 250.601 83.7678 249.629 86.1542C249.187 87.3033 248.922 88.4523 248.303 89.6014C247.596 90.8388 246.447 92.3414 245.121 93.6673C244.856 93.9324 244.414 94.3744 243.884 94.7279C244.061 94.9047 251.22 94.6395 250.248 87.4801C250.248 87.4801 251.574 91.104 249.364 93.4905C247.596 95.435 245.298 96.1421 244.856 96.2305C244.945 96.3189 245.917 98.8822 246.005 98.9706C246.359 99.3241 247.331 99.766 247.331 99.766C247.685 99.5893 248.657 99.1473 248.922 98.8822C251.574 97.468 253.341 92.695 253.96 89.2478V89.2478Z" fill="#263238" />
        <path d="M248.568 72.1889C249.203 72.8235 250.509 72.5465 251.485 71.5702C252.462 70.5939 252.739 69.288 252.104 68.6534C251.469 68.0188 250.163 68.2958 249.187 69.2721C248.211 70.2484 247.934 71.5543 248.568 72.1889Z" fill="#ECEFF1" />
        <path d="M252.369 76.3431C253.199 77.173 254.782 76.9356 255.905 75.8128C257.027 74.69 257.265 73.1071 256.435 72.2773C255.605 71.4474 254.022 71.6848 252.899 72.8076C251.777 73.9303 251.539 75.5133 252.369 76.3431Z" fill="#ECEFF1" />
        <path d="M250.858 71.1844C251.366 70.5298 251.468 69.7591 251.086 69.4629C250.704 69.1667 249.983 69.4573 249.475 70.1119C248.967 70.7666 248.865 71.5373 249.247 71.8335C249.629 72.1296 250.35 71.8391 250.858 71.1844Z" fill="#212121" />
        <path d="M252.811 75.7245C253.299 76.2126 254.209 76.0939 254.844 75.4593C255.479 74.8247 255.597 73.9145 255.109 73.4264C254.621 72.9382 253.711 73.0569 253.076 73.6915C252.442 74.3261 252.323 75.2363 252.811 75.7245Z" fill="#212121" />
        <path d="M246.27 105.776C246.094 105.246 245.74 104.362 246.005 103.036C246.182 102.329 247.508 101.18 247.596 100.208C247.685 99.5893 247.154 99.4125 247.066 99.3241C246.094 98.7054 243 98.0867 243.177 95.435C243.177 95.0815 243.177 94.5511 242.735 94.1092C242.293 93.6673 241.939 93.6673 241.409 93.844C240.879 94.0208 240.614 94.286 239.73 95.1699C239.023 95.877 238.227 96.6725 237.52 97.2028C235.841 98.5286 234.691 99.1473 233.808 100.031C232.835 101.003 232.482 101.887 232.57 102.506C232.57 103.036 232.835 103.655 233.808 104.627C234.78 105.6 235.752 105.865 236.99 105.865C237.873 105.865 238.404 106.042 240.525 106.395C242.116 106.749 244.414 107.456 244.945 107.456C245.298 107.456 245.652 107.633 246.182 107.102C246.624 106.66 246.447 106.13 246.27 105.776V105.776ZM228.239 88.2756C228.769 85.9775 228.946 85.6239 229.211 84.1213C229.565 82.7071 230.095 79.8787 229.388 79.1716C228.858 78.6412 228.328 78.6412 227.62 78.6412C226.913 78.6412 225.764 79.0832 224.704 78.9064C223.731 78.818 222.317 77.227 221.433 77.4038C220.549 77.5806 220.461 79.0832 219.135 80.409C218.605 80.9393 217.809 80.8509 217.367 81.1161C216.837 81.4697 216.483 81.6464 216.307 82.1768C216.13 83.0607 216.395 83.6794 218.782 87.3033C220.019 89.2478 220.638 91.6343 221.522 92.695C222.406 93.7556 224.173 95.3466 226.56 92.9601C228.062 91.6343 227.62 90.4853 228.239 88.2756V88.2756ZM245.917 73.9567C245.74 73.0728 245.652 72.2773 246.182 71.7469C246.712 71.2166 247.243 71.3934 248.215 71.4818C248.392 71.4818 250.248 71.5702 251.22 72.5424C252.192 73.5147 252.723 75.2825 252.988 75.9012C253.607 76.8735 254.225 77.8457 253.518 78.3761C252.546 79.1716 252.281 79.26 250.955 78.818C250.159 78.3761 248.038 78.1993 247.243 77.4038C246.889 77.0502 246.359 76.5199 246.094 76.078C245.917 75.7244 245.917 74.8405 245.917 73.9567Z" fill="#FFC107" />
        <path d="M246.447 73.0728C246.447 73.4264 246.536 73.8683 246.712 74.2219C246.801 74.487 246.978 74.8406 246.978 74.8406L247.773 75.6361C248.215 76.078 249.01 76.52 249.983 76.7851C250.867 77.1387 251.132 77.0503 251.75 77.3155C252.458 77.4922 253.165 77.669 253.076 77.4038C252.988 77.1387 252.723 77.0503 251.75 76.7851C250.867 76.6083 250.248 76.3432 249.452 76.078C249.099 75.9012 248.569 75.7245 248.303 75.4593L247.508 74.6638C247.243 74.3986 247.154 74.1335 246.978 73.7799C246.889 73.5148 246.889 73.338 246.801 73.2496C246.712 72.9844 246.712 72.2773 246.624 72.0122C246.624 72.0122 246.447 71.8354 246.447 72.0122L246.447 73.0728ZM251.043 73.7799C250.955 74.0451 251.132 74.2219 251.132 74.3986C251.132 74.5754 251.22 74.6638 251.22 74.6638C251.397 74.6638 251.485 74.3986 251.397 74.3102C251.574 74.1335 251.132 73.6915 251.043 73.7799V73.7799ZM249.452 72.5425C249.364 72.6309 249.452 72.896 249.541 72.8076C249.718 72.8076 249.894 72.8076 249.983 72.896C250.248 72.9844 250.248 72.8076 249.983 72.5425C249.718 72.4541 249.629 72.5425 249.452 72.5425V72.5425Z" fill="#634703" />
        <path d="M242.381 96.7609L242.116 97.0261C241.939 97.5564 242.293 98.0867 242.646 98.4403C243.177 98.9706 244.061 99.1474 244.679 99.059C244.768 98.9706 244.945 98.9706 245.121 98.9706C245.563 98.8822 245.828 98.7938 246.005 98.7938C246.005 98.7938 246.005 98.617 246.094 98.5287C246.182 98.2635 246.094 97.8216 245.828 97.3796C245.652 97.0261 245.298 96.4957 245.121 96.3189C244.414 95.4351 243.707 95.2583 243.177 95.2583C243.177 95.2583 243.265 95.3467 243.177 95.4351C243.177 95.7886 243.088 96.0538 242.823 96.319C242.735 96.5841 242.558 96.5841 242.381 96.7609V96.7609Z" fill="#455A64" />
    </g>
    <g clip-path="url(#clip4_11_74)">
        <path d="M172.873 306.591C161.018 318.075 142.063 317.766 130.579 305.85C129.282 307.579 128.171 309.493 127.368 311.468C123.602 299.984 121.317 290.352 122.182 282.882C122.614 276.584 125.084 270.533 129.159 265.717C139.778 253.122 158.672 251.517 171.267 262.136L171.508 262.351L171.521 262.359C171.561 262.387 171.6 262.415 171.638 262.445C171.753 262.534 171.857 262.632 171.951 262.736L171.985 262.774L172.379 263.124C172.763 263.453 173.147 263.783 173.488 264.155L173.614 264.297C185.098 276.152 184.727 295.107 172.873 306.591H172.873ZM168.428 266.396C169.539 267.261 171.144 267.137 172.009 266.026C172.769 265.049 172.765 263.689 171.997 262.788L171.985 262.774L171.509 262.351L171.462 262.319C170.383 261.609 168.93 261.756 168.102 262.759L168.057 262.815C167.193 263.927 167.378 265.532 168.427 266.397L168.428 266.396ZM127.677 308.382C130.764 301.898 138.42 296.959 145.027 295.415C151.263 293.934 156.696 295.168 162.438 292.946C175.528 287.944 175.281 272.386 168.119 268.866L167.686 268.619C167.686 268.619 162.513 269.648 157.397 271.006L156.959 271.123C154.915 271.674 152.905 272.274 151.263 272.879C142.742 276.028 133.357 283.808 130.27 292.822C131.876 283.437 139.964 274.361 148.052 270.224C152.374 268.002 155.708 267.508 162.809 265.038C163.673 264.729 164.352 264.421 164.352 264.421L164.093 264.456L163.92 264.478L163.748 264.499C162.18 264.694 160.771 264.791 160.771 264.791C150.707 265.285 134.901 261.951 127.553 271.768C120.021 281.77 124.219 297.947 127.677 308.382H127.677Z" fill="#6DB33F" />
        <path d="M168.427 266.396C167.377 265.532 167.192 263.927 168.057 262.815C168.921 261.704 170.526 261.58 171.638 262.445C172.749 263.309 172.872 264.915 172.008 266.026C171.144 267.137 169.539 267.261 168.427 266.396H168.427ZM127.677 308.381C124.219 297.947 120.02 281.77 127.553 271.768C134.901 261.951 150.707 265.285 160.771 264.791C160.771 264.791 162.18 264.694 163.748 264.499L163.92 264.478C164.063 264.46 164.207 264.44 164.352 264.42C164.352 264.42 163.673 264.729 162.808 265.038C155.708 267.508 152.374 268.002 148.052 270.224C139.963 274.361 131.875 283.437 130.27 292.822C133.357 283.808 142.742 276.028 151.262 272.879C157.128 270.718 167.686 268.619 167.686 268.619L168.118 268.866C175.28 272.385 175.527 287.944 162.438 292.946C156.696 295.168 151.262 293.934 145.026 295.415C138.42 296.959 130.764 301.898 127.677 308.381V308.381Z" fill="white" />
    </g>
    <g clip-path="url(#clip5_11_74)">
        <path d="M14.6861 142.584L1.86248 164.183C1.11099 165.443 0.714233 166.883 0.714233 168.35C0.714233 169.817 1.11099 171.257 1.86248 172.517L14.6861 194.121C15.4567 195.398 16.5458 196.453 17.8467 197.183C19.1476 197.914 20.6159 198.293 22.1077 198.286H47.7507C49.2418 198.293 50.7091 197.912 52.0092 197.182C53.3093 196.452 54.3977 195.397 55.1679 194.121L67.9873 172.522C68.7384 171.261 69.1349 169.822 69.1349 168.354C69.1349 166.887 68.7384 165.447 67.9873 164.187L55.1679 142.588C54.3979 141.31 53.309 140.254 52.0081 139.523C50.7071 138.792 49.2386 138.412 47.7464 138.419H22.1077C20.6159 138.411 19.1476 138.791 17.8467 139.521C16.5458 140.251 15.4567 141.307 14.6861 142.584V142.584Z" fill="white" />
        <path d="M14.717 142.461L1.86524 164.108C1.11202 165.371 0.714355 166.814 0.714355 168.284C0.714355 169.755 1.11202 171.198 1.86524 172.461L14.717 194.111C15.4893 195.392 16.5808 196.449 17.8846 197.181C19.1884 197.913 20.6598 198.293 22.1549 198.286H47.8544C49.3488 198.293 50.8194 197.912 52.1223 197.18C53.4253 196.448 54.5161 195.391 55.288 194.111L68.1355 172.465C68.8882 171.202 69.2856 169.759 69.2856 168.289C69.2856 166.818 68.8882 165.375 68.1355 164.112L55.288 142.466C54.5162 141.185 53.4249 140.126 52.1211 139.394C50.8172 138.661 49.3454 138.28 47.8499 138.287H22.1549C20.6598 138.279 19.1884 138.66 17.8846 139.392C16.5808 140.123 15.4894 141.181 14.717 142.461V142.461ZM66.8222 171.706L53.9747 193.353C53.3374 194.405 52.4388 195.273 51.3663 195.875C50.2938 196.476 49.0839 196.79 47.8542 196.786H22.1552C20.9254 196.791 19.7154 196.477 18.6429 195.875C17.5703 195.274 16.6718 194.405 16.0349 193.353L3.18283 171.706C2.56587 170.672 2.24013 169.49 2.24013 168.286C2.24013 167.082 2.56587 165.9 3.18283 164.866L16.0346 143.237C16.5682 142.356 17.2875 141.602 18.1425 141.028C18.9974 140.454 19.9674 140.073 20.9846 139.912C19.4546 140.632 19.0341 142.249 20.1178 144.134L32.7918 164.598C34.2786 167.151 35.9562 169.032 39.0336 169.036H64.2693C66.1113 169.036 67.3033 168.295 67.6544 167.151C67.7232 167.525 67.7595 167.905 67.7629 168.286C67.762 169.49 67.4371 170.671 66.8222 171.706V171.706Z" fill="#2F3A3E" />
        <path d="M50.2838 148.195L53.5016 153.575C53.53 153.645 53.5782 153.706 53.6403 153.75C53.7025 153.793 53.776 153.818 53.852 153.821H55.2662C55.4393 153.821 55.5084 153.705 55.4261 153.562L52.1047 148.099C52.0555 148.034 51.9888 147.984 51.9122 147.954C51.8356 147.925 51.7524 147.919 51.6721 147.935H50.4309C50.2707 147.939 50.2016 148.065 50.2836 148.195H50.2838Z" fill="#3AB14A" />
        <path d="M38.4371 159.644C38.3506 159.471 38.4371 159.328 38.6835 159.324L40.5606 159.307C40.2667 158.66 40.179 157.938 40.3097 157.239C40.3445 157.105 40.5261 157.049 40.7423 157.101L42.3901 157.512C42.5144 157.543 42.628 157.607 42.7188 157.698C42.7501 157.729 42.7763 157.766 42.7964 157.806C42.823 157.855 42.8322 157.911 42.8227 157.966C42.6718 158.647 42.7861 159.36 43.1425 159.96C43.3361 160.389 43.647 160.756 44.0396 161.017C44.4321 161.278 44.8903 161.422 45.3614 161.434C46.2264 161.434 46.4642 161.002 46.4902 159.492C46.525 157.499 47.3942 156.634 49.4053 156.612C50.4425 156.635 51.4621 156.884 52.3935 157.341C53.3248 157.798 54.1455 158.453 54.7986 159.259L56.6409 159.224C56.7536 159.226 56.8641 159.255 56.9624 159.311C57.0606 159.366 57.1435 159.445 57.2034 159.54L57.8302 160.63C57.9167 160.803 57.8302 160.946 57.5881 160.95H55.776C56.1652 161.884 56.256 162.831 56.0139 163.437C55.9705 163.549 55.802 163.601 55.6073 163.554L53.9422 163.16C53.8105 163.13 53.6902 163.063 53.5962 162.966C53.5667 162.935 53.5418 162.9 53.5225 162.862C53.51 162.834 53.5035 162.803 53.5035 162.773C53.5035 162.742 53.51 162.712 53.5225 162.684C53.7314 161.913 53.6275 161.091 53.233 160.396C52.9958 159.905 52.6287 159.487 52.1713 159.189C51.7139 158.891 51.1836 158.724 50.638 158.705C49.7037 158.705 49.3145 159.22 49.3056 160.435C49.3056 162.005 49.003 163.463 46.7106 163.493C45.7216 163.475 44.7488 163.239 43.8619 162.801C42.9751 162.362 42.1962 161.733 41.5812 160.959L39.6955 161.036C39.5814 161.037 39.4691 161.008 39.3693 160.953C39.2694 160.897 39.1853 160.818 39.1249 160.721L38.4371 159.644V159.644Z" fill="white" />
    </g>
    <g clip-path="url(#clip6_11_74)">
        <path d="M262.886 197.705C263.976 197.345 264.735 196.403 264.917 195.184C265.002 194.609 264.966 193.951 264.805 193.172C264.525 191.815 264.419 190.808 264.398 190.073C269.082 192.847 274.423 195.103 279.451 196.402C287.582 198.502 291.286 197.379 292.961 196.068C297.395 192.598 299.777 187.535 299.85 181.426C299.89 178.168 299.247 175.307 298.784 173.815C299.029 172.426 299.166 170.932 299.191 169.364C299.238 166.426 298.598 163.83 297.281 161.611C297.697 160.383 298.282 158.412 298.656 156.136C299.535 150.782 298.85 146.467 296.62 143.311C293.921 139.49 289.23 137.718 282.68 138.046C280.6 138.15 274.272 139.313 268.27 141.145C264.821 142.198 261.956 143.32 259.755 144.482C256.635 146.129 254.797 147.891 254.137 149.869C253.767 150.978 253.509 152.993 255.274 155.112C254.948 155.38 254.625 155.739 254.325 156.214C253.944 156.818 253.633 157.557 253.448 158.294C252.784 160.952 252.95 163.442 253.881 165.566C253.504 165.579 253.143 165.59 252.831 165.598C252.325 165.612 251.83 165.626 251.366 165.645C248.232 165.77 245.794 165.984 244.089 166.616C243.995 166.65 243.852 166.697 243.701 166.746C242.735 167.061 241.12 167.588 239.854 168.93C238.543 170.318 238.141 171.998 238.141 173.536C238.141 174.308 238.243 175.044 238.381 175.69C238.874 177.991 239.626 180.605 242.318 182.496C244.864 184.284 248.697 185.153 254.738 185.311C254.909 185.331 255.072 185.35 255.227 185.368L255.546 185.405L255.509 185.826L255.502 185.935C255.395 188.279 255.892 191.146 256.71 192.906C257.356 194.297 259.709 198.755 262.886 197.705" fill="black" />
        <path d="M262.268 193.697C260.83 186.726 263.19 186.247 263.19 186.247C274.111 193.606 287.972 196.683 291.365 194.028C300.619 186.785 296.242 174.247 296.129 174.038L296.117 173.971C296.403 172.594 296.573 171.053 296.601 169.32C296.653 166.167 295.774 163.774 294.398 161.959C294.398 161.959 303.612 139.592 282.809 140.633C278.384 140.854 249.323 146.976 258.101 154.277C261.311 156.946 264.024 159.525 264.024 159.525C263.174 160.806 262.74 162.339 262.895 163.946L263.001 164.071C262.603 164.032 262.213 164.05 261.752 164.121C259.65 162.24 259.281 162.793 258.507 159.033C257.723 155.228 256.327 157.463 255.962 158.922C255.519 160.692 254.893 164.785 258.764 167.55L258.323 167.44C257.732 168.177 254.483 168.695 251.537 168.608C248.591 168.521 246.569 168.463 244.989 169.044C243.41 169.625 239.855 170.203 240.914 175.147C241.8 179.277 244.093 181.418 247.92 181.716C250.64 181.927 250.238 182.405 252.67 182.435L253.821 182.819C257.509 183.261 258.698 182.889 258.145 185.434L258.091 186.053C258.005 187.925 258.392 190.377 259.061 191.816C260.498 194.914 262.899 196.751 262.268 193.696V193.697" fill="#336791" />
        <path d="M280.83 163.268C280.917 162.64 280.837 162.071 280.619 161.783C280.496 161.621 280.354 161.571 280.256 161.558C279.997 161.521 279.711 161.703 279.563 161.814C279.145 162.13 278.858 162.591 278.794 163.047C278.785 163.113 278.781 163.179 278.781 163.244C278.781 164.005 279.373 164.696 279.81 164.757C280.358 164.833 280.723 164.039 280.83 163.268M280.813 184.077C281.242 184.017 281.364 183.253 281.263 182.528C281.163 181.805 280.836 181.103 280.406 181.161C280.071 181.208 279.5 181.812 279.5 182.527C279.5 182.588 279.504 182.649 279.513 182.71C279.579 183.187 279.882 183.537 280.057 183.704C280.323 183.957 280.62 184.104 280.813 184.077" fill="white" />
        <path d="M262.432 196.016C263.235 195.75 263.494 194.895 263.2 193.474C262.329 189.254 262.933 187.742 263.298 187.246C268.295 190.526 274.335 193.225 279.971 194.68C282.64 195.37 285.12 195.751 287.14 195.782C289.358 195.816 290.988 195.439 291.984 194.66C295.997 191.518 298.15 186.908 298.209 181.328C298.253 177.491 297.271 174.25 296.995 173.622C297.324 172.298 297.526 170.856 297.552 169.285C297.598 166.405 296.909 163.916 295.503 161.855C295.836 160.959 296.631 158.645 297.087 155.816C297.874 150.924 297.277 147.037 295.312 144.263C292.967 140.952 288.775 139.424 282.853 139.72C280.86 139.82 274.731 140.955 268.861 142.747C261.135 145.105 256.761 147.669 255.862 150.366C255.756 150.682 255.683 151.046 255.683 151.447C255.683 152.431 256.126 153.637 257.635 154.892C259.472 156.423 261.263 158.007 263.008 159.641C262.439 160.701 262.122 161.866 262.09 163.058C262.059 163.06 262.027 163.063 261.996 163.066C261.752 162.861 261.504 162.66 261.252 162.463C260.204 161.638 259.986 161.466 259.439 158.809C259.283 158.053 258.869 156.046 257.462 156.016C255.925 155.984 255.279 158.389 255.211 158.663C254.971 159.618 254.854 160.538 254.854 161.415C254.854 163.549 255.555 165.426 256.912 166.927C251.431 166.881 246.03 167.109 244.384 167.767C243.037 168.306 239.745 169.623 239.745 173.782C239.745 174.393 239.816 175.064 239.974 175.803C240.905 180.144 242.823 182.029 247.053 182.758C249.314 183.149 254.712 183.818 257.607 184.133C257.4 184.798 257.305 185.654 257.305 186.579C257.305 188.508 257.715 190.734 258.363 192.131C259.091 193.699 260.879 196.529 262.432 196.016V196.016ZM281.997 185.679C281.142 185.664 280.366 185.547 279.556 185.422C278.685 185.288 277.785 185.149 276.691 185.114C275.627 185.08 274.521 185.213 273.451 185.341C271.29 185.601 269.065 185.867 266.87 184.836C267.174 184.664 267.488 184.512 267.81 184.379C268.121 184.25 268.62 183.972 269.311 183.586C272 182.087 278.299 178.575 280.869 180.372C281.634 180.908 282.421 182.267 281.997 185.679V185.679ZM296.479 181.543C296.368 186.544 294.498 190.499 290.919 193.299C288.174 195.447 275.685 193.082 264.911 186.235C264.998 186.166 265.086 186.097 265.173 186.027L265.281 185.941C268.203 187.71 271.094 187.364 273.657 187.056C274.709 186.93 275.702 186.81 276.636 186.841C277.625 186.872 278.473 187.003 279.294 187.129C280.304 187.285 281.35 187.443 282.583 187.399C282.713 187.432 282.866 187.445 283.047 187.428C284.229 187.317 287.768 185.967 290.971 183.215C292.723 181.71 294.684 179.515 296.006 176.518C296.273 177.807 296.522 179.57 296.479 181.543V181.543ZM258.74 153.564C257.077 152.181 257.396 151.227 257.5 150.912C258.183 148.866 262.507 146.492 269.365 144.399C275.299 142.588 281.266 141.529 282.939 141.445C288.231 141.181 291.919 142.464 293.901 145.258C297.126 149.806 295.195 157.283 294.216 160.287C294.174 160.244 294.134 160.199 294.091 160.157C289.111 155.226 280.605 155.343 280.085 155.356C279.884 155.355 279.6 155.372 279.209 155.395C277.778 155.48 275.115 155.638 272.1 155.216C269.297 154.824 266.554 155.688 264.574 157.586C264.371 157.78 264.178 157.985 263.996 158.199C263.091 157.354 261.09 155.518 258.74 153.564V153.564ZM265.769 158.833C267.365 157.303 269.585 156.609 271.861 156.927C275.046 157.372 277.821 157.208 279.311 157.119C279.52 157.107 279.703 157.096 279.847 157.089C280.486 157.81 282.274 161.147 281.728 163.528C281.48 164.614 280.74 165.276 279.468 165.551C272.881 166.975 270.136 165.739 267.93 164.746C267.475 164.542 267.046 164.349 266.601 164.184L266.258 164.056C265.389 163.732 264.582 163.43 263.815 163.243C263.819 161.617 264.514 160.036 265.769 158.833H265.769ZM256.886 159.082C257.005 158.607 257.211 158.18 257.382 157.93C257.48 158.139 257.614 158.512 257.747 159.158C258.391 162.283 258.845 162.766 260.184 163.82C260.491 164.062 260.838 164.336 261.262 164.716L261.263 164.716C261.895 165.281 261.788 165.54 261.594 166.008C261.436 166.388 260.96 166.758 260.436 166.908C260.189 166.979 259.719 167.059 259.353 166.798C256.27 164.596 256.31 161.387 256.886 159.082V159.082ZM241.663 175.441C240.844 171.617 242.795 170.263 245.026 169.371C246.466 168.795 252.959 168.512 260.13 168.713C260.226 168.716 260.318 168.702 260.405 168.676C260.576 168.652 260.745 168.617 260.911 168.569C261.955 168.27 262.827 167.543 263.189 166.67C263.333 166.323 263.597 165.686 263.401 164.921C264.073 165.084 264.832 165.367 265.654 165.674L266 165.803C266.39 165.947 266.794 166.129 267.221 166.321C269.529 167.36 272.691 168.783 279.833 167.239C282.508 166.661 283.814 164.729 283.511 161.801C283.329 160.045 282.621 158.439 282.215 157.638C282.128 157.466 282.043 157.308 281.961 157.161C284.656 157.385 289.694 158.229 292.881 161.389C294.887 163.379 295.878 166.028 295.824 169.257C295.72 175.617 292.456 179.697 289.736 181.999C287.392 183.982 285.03 185.056 283.757 185.485C284.085 182.261 283.448 180.069 281.859 178.957C278.403 176.539 271.694 180.28 268.47 182.078C267.879 182.408 267.368 182.692 267.151 182.782C265.732 183.367 264.785 184.125 264.093 184.679C263.881 184.848 263.676 185.013 263.496 185.138C263.215 184.162 262.565 182.408 259.314 182.568C257.682 182.439 250.045 181.522 247.347 181.056C243.782 180.442 242.454 179.13 241.663 175.441H241.663ZM259.929 191.403C259.466 190.405 259.119 188.734 259.044 187.147C258.962 185.394 259.24 184.501 259.411 184.291C261.437 184.193 261.649 184.947 261.873 185.745C261.908 185.87 261.943 185.993 261.984 186.111C261.924 186.184 261.865 186.264 261.807 186.353C260.877 187.762 260.776 190.275 261.509 193.823L261.517 193.862C261.069 193.383 260.469 192.564 259.929 191.403Z" fill="white" />
    </g>
    <g clip-path="url(#clip7_11_74)">
        <path d="M141.349 62.689C141.349 62.689 138.255 64.4878 143.55 65.0965C149.965 65.8282 153.243 65.7235 160.312 64.3854C160.312 64.3854 162.17 65.5507 164.766 66.5602C148.919 73.3517 128.902 66.1667 141.349 62.689M139.412 53.8264C139.412 53.8264 135.943 56.3946 141.241 56.9426C148.094 57.6495 153.505 57.7074 162.869 55.9043C162.869 55.9043 164.164 57.2173 166.2 57.9354C147.041 63.5379 125.701 58.3772 139.412 53.8264" fill="#5382A1" />
        <path d="M155.736 38.7926C159.641 43.2879 154.711 47.3332 154.711 47.3332C154.711 47.3332 164.625 42.2152 160.072 35.806C155.819 29.8294 152.558 26.8594 170.213 16.6205C170.213 16.6205 142.501 23.5416 155.736 38.7924" fill="#E76F00" />
        <path d="M176.695 69.2442C176.695 69.2442 178.984 71.1302 174.173 72.5894C165.027 75.3605 136.103 76.1972 128.069 72.6998C125.18 71.4436 130.597 69.6998 132.301 69.3337C134.077 68.9484 135.093 69.0204 135.093 69.0204C131.881 66.7575 114.331 73.4634 126.179 75.3837C158.488 80.6233 185.075 73.0244 176.695 69.2442ZM142.836 44.6437C142.836 44.6437 128.124 48.1383 137.626 49.4069C141.638 49.9441 149.636 49.8227 157.086 49.1983C163.175 48.6851 169.289 47.5929 169.289 47.5929C169.289 47.5929 167.142 48.5123 165.589 49.5729C150.649 53.5022 121.787 51.6743 130.096 47.655C137.123 44.2584 142.836 44.6437 142.836 44.6437M169.228 59.3958C184.415 51.5039 177.393 43.92 172.492 44.9419C171.291 45.1917 170.755 45.4083 170.755 45.4083C170.755 45.4083 171.201 44.7098 172.053 44.4075C181.749 40.9985 189.206 54.4615 168.923 59.7935C168.923 59.7937 169.158 59.5837 169.228 59.3958Z" fill="#5382A1" />
        <path d="M160.072 0.0869653C160.072 0.0869653 168.483 8.50103 152.094 21.4388C138.953 31.8174 149.097 37.7349 152.089 44.4959C144.418 37.5748 138.788 31.482 142.565 25.8115C148.108 17.4872 163.465 13.4515 160.072 0.086731" fill="#E76F00" />
        <path d="M144.328 80.7809C158.906 81.7141 181.292 80.2631 181.822 73.3652C181.822 73.3652 180.803 75.9804 169.775 78.057C157.332 80.3984 141.986 80.1251 132.884 78.6244C132.884 78.6244 134.747 80.1666 144.329 80.7809" fill="#5382A1" />
    </g>
    <circle cx="152" cy="168" r="75" stroke="#131313" stroke-width="10" />
    <defs>
        <clipPath id="clip0_11_74">
            <rect width="60" height="60" fill="white" transform="translate(22.5736 81) rotate(-45)" />
        </clipPath>
        <clipPath id="clip1_11_74">
            <rect width="60" height="60" fill="white" transform="translate(285.426 266) rotate(135)" />
        </clipPath>
        <clipPath id="clip2_11_74">
            <rect width="83.027" height="60" fill="white" transform="translate(72.6548 305.568) rotate(-135)" />
        </clipPath>
        <clipPath id="clip3_11_74">
            <rect width="60" height="60" fill="white" transform="translate(243 39.5736) rotate(45)" />
        </clipPath>
        <clipPath id="clip4_11_74">
            <rect width="60" height="60" fill="white" transform="translate(182 315) rotate(-180)" />
        </clipPath>
        <clipPath id="clip5_11_74">
            <rect width="60" height="68.5714" fill="white" transform="translate(0.714233 198.286) rotate(-90)" />
        </clipPath>
        <clipPath id="clip6_11_74">
            <rect width="60" height="61.875" fill="white" transform="translate(299.938 137.938) rotate(90)" />
        </clipPath>
        <clipPath id="clip7_11_74">
            <rect width="60" height="81.0938" fill="white" transform="translate(122)" />
        </clipPath>
    </defs>
</svg>
    