<svg width="42" height="30" viewBox="0 0 42 30" fill="none" xmlns="http://www.w3.org/2000/svg">
    <g clip-path="url(#clip0_27_18)">
        <path d="M40.7599 11.4319C39.825 10.7833 37.6827 10.5401 36.0079 10.8644C35.8133 9.24276 34.9173 7.824 33.3593 6.56724L32.4635 5.91859L31.8401 6.85103C31.0613 8.06724 30.6718 9.76995 30.7885 11.3916C30.8274 11.959 31.0222 12.9725 31.6065 13.8644C31.0613 14.1887 29.9317 14.5941 28.4516 14.5941H0.290525L0.212687 14.9184C-0.0600699 16.5399 -0.06007 21.6073 3.13388 25.499C5.54879 28.4583 9.13225 29.9583 13.8452 29.9583C24.05 29.9583 31.6065 25.0529 35.151 16.175C36.5532 16.2156 39.5524 16.175 41.0715 13.1345C41.1105 13.0534 41.1883 12.8912 41.4609 12.2833L41.6167 11.959L40.7599 11.4319ZM22.8037 0H18.5193V4.05389H22.8037V0ZM22.8037 4.8647H18.5193V8.91859H22.8037V4.86454V4.8647ZM17.7401 4.8647H13.4558V8.91859H17.7401V4.86454V4.8647ZM12.6766 4.8647H8.39215V8.91859H12.6766V4.86454V4.8647ZM7.61312 9.72941H3.32863V13.7833H7.61296V9.72924L7.61312 9.72941ZM12.6766 9.72941H8.39215V13.7833H12.6766V9.72924V9.72941ZM17.7401 9.72941H13.4558V13.7833H17.7401V9.72924V9.72941ZM22.8038 9.72941H18.5192V13.7833H22.8038V9.72924V9.72941ZM27.8673 9.72941H23.5827V13.7833H27.8673V9.72924V9.72941Z" fill="#2396ED" />
    </g>
    <defs>
        <clipPath id="clip0_27_18">
            <rect width="41.52" height="30" fill="white" transform="translate(0.100098)" />
        </clipPath>
    </defs>
</svg>
    