<svg width="50" height="50" viewBox="0 0 50 50" fill="none" xmlns="http://www.w3.org/2000/svg">
    <g clip-path="url(#clip0_28_2)">
        <path d="M49.5812 30.4433C48.8094 30.4433 48.2635 30.3694 47.9433 30.2217C47.6231 30.0739 47.2989 29.7865 46.9705 29.3597L40.8867 20.6405L44.7783 15.0002C45.1067 14.5568 45.5542 14.1545 46.1207 13.7933C46.6872 13.4322 47.619 13.2515 48.9163 13.2515V12.3893H42.1921V13.2515C42.734 13.2515 43.1568 13.3869 43.4606 13.6578C43.7644 13.9287 43.9163 14.2284 43.9163 14.5568C43.9163 14.6718 43.9081 14.7826 43.8917 14.8893C43.8752 14.9961 43.8095 15.1069 43.6946 15.2219L40.4433 20.0002L36.7488 14.5568L36.6379 14.4214L36.5271 14.1382C36.5271 13.9083 36.6832 13.703 36.9951 13.5224C37.307 13.3419 37.734 13.2516 38.2758 13.2516V12.3894H30.4433V13.2516H30.8867C31.642 13.2516 32.2085 13.3173 32.5862 13.4486C32.9638 13.58 33.2594 13.8099 33.4729 14.1383L38.6946 21.9461L34.1379 28.6949C33.9245 29.0233 33.5344 29.3969 32.9679 29.8156C32.4014 30.2344 31.4121 30.4437 30 30.4437V31.3058H31.6028C31.2787 33.0381 30.8267 34.3442 30.2461 35.2221C29.5729 36.2401 28.0459 36.7491 25.6648 36.7491H21.9702C21.3133 36.7491 20.9316 36.6752 20.8249 36.5274C20.7181 36.3797 20.6648 36.0923 20.6648 35.6654V28.2516H23.054C24.3512 28.2516 25.1803 28.4979 25.5417 28.9906C25.903 29.4833 26.0835 30.3289 26.0835 31.5275H26.7486V24.1384H26.0835C26.0835 25.337 25.9317 26.1786 25.6279 26.663C25.3241 27.1473 24.4662 27.3895 23.054 27.3895H20.6648V20.6407C20.6648 20.2138 20.7182 19.9264 20.8249 19.7787C20.9315 19.631 21.3133 19.557 21.9702 19.557H25.4431C27.6106 19.557 29.0022 19.9757 29.6179 20.8132C30.2336 21.6507 30.6565 23.0464 30.8864 25.0004H31.5268L30.6648 18.695H18.0384L17.6106 12.6112H0.443115L-0.000244141 18.9166H0.640186C0.870068 16.6342 1.2478 15.1563 1.77319 14.4831C2.29858 13.8099 3.59585 13.4732 5.66479 13.4732H7.16733C7.49575 13.4732 7.68862 13.5718 7.74614 13.7687C7.80366 13.9657 7.83237 14.2285 7.83237 14.5569V29.1383C7.83237 29.5652 7.71333 29.8894 7.47524 30.1111C7.23716 30.3328 6.41196 30.4436 4.99985 30.4436H3.69448V31.3057H14.1378V30.4436H13.2511C11.839 30.4436 11.0179 30.3328 10.7881 30.1111C10.5583 29.8894 10.4433 29.5651 10.4433 29.1383V14.5569C10.4433 14.2285 10.4597 13.9945 10.4925 13.855C10.5253 13.7154 10.6485 13.5882 10.8621 13.4731H12.3892C14.4582 13.4731 15.7553 13.8098 16.2808 14.483C16.7888 15.134 17.1506 16.5394 17.367 18.6948H15.2217V19.5568H15.8622C16.9624 19.5568 17.6027 19.639 17.7833 19.8031C17.964 19.9673 18.0542 20.3204 18.0542 20.8622V35.4435C18.0542 35.9854 17.9639 36.3385 17.7833 36.5027C17.6028 36.667 16.9624 36.749 15.8622 36.749H15.2217V37.611H31.3054L32.2588 31.3057H36.9705V30.4436C36.3136 30.4436 35.858 30.2794 35.6035 29.951C35.349 29.6225 35.2217 29.3516 35.2217 29.1382C35.2217 29.0232 35.2299 28.9124 35.2463 28.8057C35.2627 28.6989 35.3285 28.5881 35.4433 28.4731L39.3596 22.611L43.6946 29.3598C43.6946 29.4583 43.7315 29.5158 43.8054 29.5321L43.9163 29.5567C43.9163 29.7866 43.7644 29.9919 43.4606 30.1724C43.1568 30.353 42.734 30.4433 42.1921 30.4433V31.3054H50V30.4433H49.5812V30.4433Z" fill="white" />
    </g>
    <defs>
        <clipPath id="clip0_28_2">
            <rect width="50" height="50" fill="white" />
        </clipPath>
    </defs>
</svg>
    