<svg width="50" height="50" viewBox="0 0 50 50" fill="none" xmlns="http://www.w3.org/2000/svg">
    <g clip-path="url(#clip0_12_76)">
        <path d="M24.7883 0.0140381C12.1258 0.0140381 12.9164 5.50525 12.9164 5.50525L12.9305 11.1943H25.0141V12.9023H8.13105C8.13105 12.9023 0.0283203 11.9834 0.0283203 24.7597C0.0283203 37.5365 7.10059 37.0834 7.10059 37.0834H11.3213V31.1545C11.3213 31.1545 11.0938 24.0822 18.2807 24.0822H30.2654C30.2654 24.0822 36.9988 24.191 36.9988 17.5746V6.63474C36.9988 6.63474 38.0215 0.0140381 24.7883 0.0140381ZM18.1254 3.83982C18.4109 3.83956 18.6937 3.89561 18.9576 4.00477C19.2214 4.11392 19.4612 4.27404 19.6631 4.47595C19.865 4.67786 20.0251 4.9176 20.1343 5.18146C20.2434 5.44531 20.2995 5.7281 20.2992 6.01365C20.2995 6.29919 20.2434 6.58198 20.1343 6.84584C20.0251 7.1097 19.865 7.34944 19.6631 7.55135C19.4612 7.75326 19.2214 7.91337 18.9576 8.02253C18.6937 8.13168 18.4109 8.18773 18.1254 8.18748C17.8398 8.18773 17.5571 8.13168 17.2932 8.02253C17.0293 7.91337 16.7896 7.75326 16.5877 7.55135C16.3858 7.34944 16.2257 7.1097 16.1165 6.84584C16.0074 6.58198 15.9513 6.29919 15.9516 6.01365C15.9513 5.7281 16.0074 5.44531 16.1165 5.18146C16.2257 4.9176 16.3858 4.67786 16.5877 4.47595C16.7896 4.27404 17.0293 4.11392 17.2932 4.00477C17.5571 3.89561 17.8398 3.83956 18.1254 3.83982Z" fill="url(#paint0_linear_12_76)" />
        <path d="M25.1479 49.634C37.8104 49.634 37.0198 44.1428 37.0198 44.1428L37.0057 38.4539H24.9219V36.7459H41.8049C41.8049 36.7459 49.9076 37.6649 49.9076 24.8881C49.9076 12.1115 42.8354 12.5647 42.8354 12.5647H38.6147V18.4934C38.6147 18.4934 38.8422 25.5656 31.6553 25.5656H19.6705C19.6705 25.5656 12.9371 25.4569 12.9371 32.0735V43.0135C12.9371 43.0135 11.9147 49.634 25.1477 49.634H25.1479ZM31.8108 45.8086C31.5252 45.8089 31.2424 45.7528 30.9786 45.6437C30.7147 45.5345 30.475 45.3744 30.2731 45.1725C30.0712 44.9706 29.911 44.7308 29.8019 44.467C29.6927 44.2031 29.6367 43.9203 29.6369 43.6348C29.6367 43.3492 29.6927 43.0664 29.8018 42.8025C29.911 42.5387 30.0711 42.2989 30.273 42.097C30.4749 41.895 30.7147 41.7349 30.9785 41.6257C31.2424 41.5166 31.5252 41.4605 31.8108 41.4608C32.0963 41.4605 32.3791 41.5166 32.643 41.6257C32.9068 41.7349 33.1466 41.895 33.3485 42.0969C33.5504 42.2988 33.7105 42.5385 33.8197 42.8024C33.9288 43.0663 33.9849 43.349 33.9846 43.6346C33.9849 43.9201 33.9288 44.2029 33.8197 44.4668C33.7105 44.7306 33.5504 44.9704 33.3485 45.1723C33.1466 45.3742 32.9068 45.5343 32.643 45.6435C32.3791 45.7526 32.0963 45.8087 31.8108 45.8084V45.8086Z" fill="url(#paint1_linear_12_76)" />
    </g>
    <defs>
        <linearGradient id="paint0_linear_12_76" x1="4.8217" y1="4.47705" x2="29.5404" y2="28.9491" gradientUnits="userSpaceOnUse">
            <stop stop-color="#387EB8" />
            <stop offset="1" stop-color="#366994" />
        </linearGradient>
        <linearGradient id="paint1_linear_12_76" x1="19.994" y1="20.1916" x2="46.539" y2="45.2854" gradientUnits="userSpaceOnUse">
            <stop stop-color="#FFE052" />
            <stop offset="1" stop-color="#FFC331" />
        </linearGradient>
        <clipPath id="clip0_12_76">
            <rect width="50" height="49.8047" fill="white" />
        </clipPath>
    </defs>
</svg>
    