<svg width="50" height="19" viewBox="0 0 50 19" fill="none" xmlns="http://www.w3.org/2000/svg">
    <g clip-path="url(#clip0_29_4)">
        <path d="M28.5677 1.29845L28.6774 1.37169C29.9677 2.22374 30.8928 3.3923 31.5014 4.80431C31.6475 5.02335 31.5501 5.14513 31.2579 5.21808L30.7635 5.34464C29.6456 5.63263 28.7586 5.87482 27.6554 6.16281L27.0262 6.32667C26.7996 6.38273 26.7371 6.35919 26.4961 6.08478L26.4621 6.04581C26.1185 5.65636 25.861 5.3962 25.4058 5.16398L25.318 5.12072C23.7843 4.36613 22.2993 4.58517 20.9117 5.48595C19.2562 6.55704 18.4042 8.13947 18.4285 10.1113C18.4529 12.0588 19.7918 13.6655 21.715 13.9333C23.3704 14.1525 24.758 13.5682 25.8535 12.3267C26.0727 12.0588 26.2674 11.7667 26.5107 11.4259H21.8125C21.3013 11.4259 21.1796 11.1095 21.35 10.6956L21.4344 10.4969C21.7473 9.76896 22.2325 8.72267 22.5477 8.12443L22.6164 7.99562C22.7006 7.84972 22.8715 7.65255 23.2001 7.65255H31.0345C31.3863 6.53781 31.9572 5.48449 32.7186 4.48781C34.4958 2.15079 36.6381 0.933509 39.5351 0.422376C42.0182 -0.0159055 44.3553 0.227552 46.4731 1.66388C48.3964 2.97843 49.5893 4.75568 49.9058 7.09259C50.3195 10.3791 49.3701 13.0569 47.1061 15.3453C45.4994 16.9764 43.5275 17.9988 41.2635 18.4613C40.6062 18.5831 39.9489 18.6074 39.316 18.6805C37.1007 18.6318 35.0801 17.9988 33.376 16.5382C32.1774 15.5021 31.3519 14.2288 30.9416 12.7464C30.6537 13.3273 30.3114 13.8796 29.9191 14.3958C28.1663 16.7086 25.878 18.1448 22.9811 18.5345C20.5953 18.8509 18.38 18.3883 16.4324 16.9276C14.631 15.5644 13.6085 13.7629 13.3406 11.5234C13.0242 8.86974 13.8032 6.484 15.41 4.39044C17.1385 2.12638 19.4268 0.690149 22.2264 0.178919C24.4724 -0.227331 26.6245 0.0231569 28.5678 1.29845H28.5677ZM40.1484 4.78693L40.0705 4.80431C37.8065 5.31554 36.3459 6.75177 35.8103 9.04015C35.3721 10.939 36.2972 12.8622 38.05 13.6412C39.3889 14.2255 40.7278 14.1525 42.0181 13.4951C43.9413 12.4971 44.9881 10.939 45.1099 8.84542C45.0854 8.52902 45.0854 8.28546 45.0367 8.042C44.6035 5.65909 42.4328 4.29943 40.1484 4.78693V4.78693ZM11.3687 9.23488C11.4661 9.23488 11.5148 9.30792 11.5148 9.40529L11.4661 9.98956C11.4661 10.0869 11.3687 10.16 11.2957 10.16L5.98867 10.1357C5.8913 10.1357 5.86699 10.0626 5.91562 9.98956L6.25644 9.38097C6.30517 9.30792 6.40253 9.23488 6.4999 9.23488H11.3687V9.23488ZM11.9043 6.99523C12.0017 6.99523 12.0504 7.06827 12.0261 7.14132L11.8312 7.7256C11.8069 7.82296 11.7096 7.87159 11.6122 7.87159L0.0973597 7.89601C-3.6147e-06 7.89601 -0.02432 7.84728 0.0243128 7.77423L0.535543 7.117C0.584274 7.04396 0.705953 6.99523 0.803317 6.99523H11.9043ZM13.1702 4.75558C13.2676 4.75558 13.2919 4.82863 13.2433 4.90167L12.8294 5.53458C12.7807 5.60763 12.659 5.68068 12.5859 5.68068L3.77343 5.65626C3.67597 5.65626 3.65166 5.60763 3.70029 5.53458L4.21152 4.87736C4.26025 4.80431 4.38193 4.75558 4.47929 4.75558H13.1702Z" fill="#00ACD7" />
    </g>
    <defs>
        <clipPath id="clip0_29_4">
            <rect width="50" height="18.75" fill="white" />
        </clipPath>
    </defs>
</svg>
    