<svg width="45" height="60" viewBox="0 0 45 60" fill="none" xmlns="http://www.w3.org/2000/svg">
    <g clip-path="url(#clip0_11_36)">
        <path d="M14.3157 46.3826C14.3157 46.3826 12.0271 47.7135 15.9446 48.1639C20.6907 48.7053 23.1161 48.6277 28.3464 47.6377C28.3464 47.6377 29.7215 48.4999 31.6417 49.2468C19.9172 54.2717 5.10661 48.9557 14.3157 46.3826ZM12.883 39.8253C12.883 39.8253 10.316 41.7255 14.2365 42.1309C19.3063 42.6539 23.31 42.6968 30.2381 41.3627C30.2381 41.3627 31.1964 42.3342 32.7031 42.8655C18.5274 47.0107 2.73817 43.1924 12.883 39.8253Z" fill="#5382A1" />
        <path d="M24.9611 28.702C27.8501 32.028 24.2021 35.0211 24.2021 35.0211C24.2021 35.0211 31.5375 31.2344 28.1686 26.4923C25.0223 22.0703 22.6093 19.8728 35.6718 12.2972C35.6718 12.2972 15.1681 17.4181 24.9611 28.7019" fill="#E76F00" />
        <path d="M40.4677 51.2327C40.4677 51.2327 42.1614 52.6281 38.6023 53.7078C31.8348 55.758 10.435 56.3771 4.4901 53.7895C2.35316 52.86 6.36068 51.5698 7.6212 51.2989C8.93582 51.0139 9.68721 51.0671 9.68721 51.0671C7.31062 49.3928 -5.67401 54.3544 3.09172 55.7752C26.9969 59.6519 46.6684 54.0296 40.4677 51.2327ZM15.4162 33.0312C15.4162 33.0312 4.53102 35.6167 11.5616 36.5554C14.53 36.9529 20.4477 36.863 25.9599 36.4011C30.4647 36.0213 34.9881 35.2132 34.9881 35.2132C34.9881 35.2132 33.3997 35.8935 32.2505 36.6782C21.1966 39.5854 -0.157475 38.233 5.9901 35.2592C11.1891 32.7461 15.4163 33.0312 15.4163 33.0312M34.9432 43.946C46.1802 38.1069 40.9847 32.4957 37.3583 33.2518C36.4694 33.4366 36.0732 33.5969 36.0732 33.5969C36.0732 33.5969 36.4032 33.0801 37.0333 32.8564C44.2073 30.3341 49.7247 40.2952 34.7174 44.2403C34.7174 44.2404 34.8914 44.0851 34.9432 43.946Z" fill="#5382A1" />
        <path d="M28.1686 0.0643214C28.1686 0.0643214 34.3918 6.28975 22.2662 15.8622C12.5429 23.5411 20.049 27.9194 22.2622 32.9218C16.5865 27.801 12.4212 23.293 15.2157 19.0975C19.317 12.9385 30.6794 9.95253 28.1686 0.0641479" fill="#E76F00" />
        <path d="M16.5204 59.7685C27.3064 60.459 43.8693 59.3854 44.2616 54.2818C44.2616 54.2818 43.5076 56.2167 35.3476 57.7531C26.1416 59.4855 14.7874 59.2833 8.05298 58.173C8.05315 58.173 9.43159 59.314 16.5206 59.7685" fill="#5382A1" />
    </g>
    <defs>
        <clipPath id="clip0_11_36">
            <rect width="44.3931" height="60" fill="white" />
        </clipPath>
    </defs>
</svg>
    