<svg width="30" height="30" viewBox="0 0 30 30" fill="none" xmlns="http://www.w3.org/2000/svg">
    <g clip-path="url(#clip0_27_11)">
        <path d="M28.9827 17.9643C28.8083 17.436 28.3514 17.0681 27.7605 16.9798C27.4818 16.9382 27.1627 16.9559 26.7851 17.0338C26.1269 17.1696 25.6386 17.2213 25.2823 17.2313C26.6274 14.9603 27.7211 12.3705 28.3508 9.93264C29.369 5.99071 28.8249 4.19491 28.1891 3.38264C26.5065 1.23264 24.0516 0.0776394 21.09 0.0422985C19.5101 0.0229803 18.1232 0.334912 17.3997 0.55923C16.726 0.440367 16.0017 0.374003 15.2417 0.36173C13.8171 0.339003 12.5583 0.649571 11.4827 1.28787C10.8873 1.0865 9.9316 0.802639 8.82796 0.621503C6.23228 0.195367 4.14023 0.527412 2.61001 1.60843C0.757052 2.9173 -0.101926 5.19139 0.0569379 8.36753C0.107392 9.37594 0.671483 12.4441 1.55967 15.3539C2.07012 17.0264 2.61444 18.4153 3.17751 19.4823C3.97603 20.9954 4.83046 21.8864 5.78967 22.2064C6.32728 22.3855 7.3041 22.5109 8.33148 21.6553C8.46171 21.813 8.63546 21.9697 8.86603 22.1153C9.15887 22.2999 9.51694 22.4508 9.87455 22.5403C11.1633 22.8624 12.3705 22.7818 13.4003 22.3303C13.4067 22.5134 13.4116 22.6884 13.4157 22.8396C13.4225 23.0847 13.4293 23.325 13.4383 23.5498C13.4993 25.0696 13.6027 26.2513 13.9091 27.0781C13.9259 27.1235 13.9485 27.1929 13.9724 27.2664C14.1252 27.7343 14.3808 28.5178 15.031 29.1313C15.7043 29.7668 16.5188 29.9617 17.2647 29.9617C17.6388 29.9617 17.9957 29.9126 18.3088 29.8456C19.4247 29.6064 20.6921 29.2421 21.6089 27.9366C22.4757 26.7025 22.8971 24.8438 22.9733 21.915C22.9832 21.8322 22.9923 21.7531 23.001 21.6778L23.0192 21.523L23.2234 21.5409L23.276 21.5445C24.4126 21.5963 25.8024 21.3553 26.6559 20.9588C27.3303 20.6458 29.4916 19.5048 28.9827 17.9643" fill="black" />
        <path d="M27.0393 18.2638C23.6598 18.961 23.4274 17.8168 23.4274 17.8168C26.9956 12.5221 28.4873 5.80134 27.2001 4.15645C23.6883 -0.33048 17.6093 1.79157 17.5078 1.84657L17.4752 1.85247C16.8075 1.71384 16.0603 1.63134 15.2205 1.61759C13.6914 1.59259 12.5314 2.0185 11.6511 2.686C11.6511 2.686 0.806825 -1.7815 1.31126 8.30463C1.41853 10.4503 4.38671 24.5402 7.92694 20.2844C9.22092 18.7282 10.4713 17.4124 10.4713 17.4124C11.0922 17.8249 11.8356 18.0353 12.6149 17.9597L12.6755 17.9084C12.6566 18.1016 12.6652 18.2905 12.6997 18.5143C11.7876 19.5333 12.0557 19.7121 10.2325 20.0875C8.38762 20.4677 9.47137 21.1445 10.179 21.3216C11.0368 21.536 13.0214 21.8399 14.3623 19.9627L14.3089 20.1769C14.6661 20.4632 14.9171 22.0386 14.875 23.4669C14.833 24.8951 14.8049 25.8757 15.0864 26.6416C15.3681 27.4075 15.6486 29.1308 18.0455 28.6172C20.0481 28.188 21.0859 27.0759 21.2303 25.2207C21.3327 23.9018 21.5647 24.0968 21.5792 22.9176L21.7652 22.3594C21.9797 20.5716 21.7993 19.9947 23.0331 20.263L23.3331 20.2894C24.241 20.3307 25.4297 20.1433 26.1273 19.8191C27.6293 19.122 28.5202 17.958 27.0391 18.2638H27.0393" fill="#336791" />
        <path d="M12.2858 9.26419C11.9813 9.2218 11.7055 9.26101 11.5659 9.36669C11.4875 9.42612 11.4632 9.49499 11.4566 9.54237C11.4391 9.66794 11.5271 9.8068 11.5812 9.8784C11.7341 10.0811 11.9575 10.2204 12.1787 10.2511C12.2107 10.2557 12.2426 10.2577 12.2743 10.2577C12.6431 10.2577 12.9784 9.97055 13.008 9.75862C13.0449 9.49317 12.6596 9.31624 12.2858 9.2643M22.3749 9.2726C22.3458 9.06453 21.9756 9.00521 21.6242 9.05408C21.2733 9.10294 20.9331 9.26135 20.9615 9.46987C20.9842 9.63203 21.2771 9.90885 21.6237 9.90885C21.653 9.90885 21.6825 9.90692 21.7123 9.90271C21.9437 9.87067 22.1134 9.72374 22.1941 9.63908C22.3168 9.50999 22.388 9.36612 22.3749 9.2726" fill="white" />
        <path d="M28.1639 18.1846C28.0351 17.795 27.6203 17.6696 26.9312 17.8119C24.8852 18.2342 24.1525 17.9417 23.9119 17.7645C25.5022 15.3418 26.8105 12.4132 27.5163 9.68078C27.8506 8.38646 28.0353 7.18442 28.0504 6.20464C28.0671 5.1293 27.8839 4.33908 27.5062 3.85635C25.9832 1.91033 23.748 0.866462 21.0423 0.837826C19.1822 0.816917 17.6106 1.29294 17.306 1.4268C16.6644 1.26726 15.965 1.1693 15.2035 1.1568C13.8071 1.13419 12.6001 1.46851 11.6007 2.14999C11.1667 1.98839 10.0448 1.60328 8.67291 1.38226C6.30109 1.00044 4.41631 1.28976 3.07131 2.2426C1.46643 3.37964 0.725519 5.41214 0.869041 8.28351C0.917337 9.24953 1.46779 12.2213 2.33643 15.0674C3.47984 18.8133 4.72279 20.9338 6.03052 21.3701C6.18359 21.4211 6.36006 21.4568 6.55472 21.4568C7.03177 21.4568 7.61666 21.2418 8.22518 20.5102C8.9674 19.6198 9.73518 18.751 10.5276 17.905C11.0417 18.1809 11.6064 18.335 12.184 18.3504C12.1852 18.3656 12.1867 18.3807 12.188 18.3957C12.0886 18.5142 11.9912 18.6345 11.896 18.7565C11.4957 19.2645 11.4125 19.3703 10.1242 19.6356C9.75768 19.7112 8.78438 19.9118 8.77006 20.5941C8.75461 21.3395 9.92063 21.6526 10.0535 21.6858C10.5164 21.8017 10.9625 21.8588 11.3878 21.8588C12.4222 21.8588 13.3326 21.5188 14.0601 20.861C14.0377 23.5185 14.1485 26.1371 14.4676 26.935C14.7289 27.5882 15.3673 29.1844 17.3839 29.1843C17.6798 29.1843 18.0055 29.1499 18.3638 29.0731C20.4685 28.6219 21.3825 27.6917 21.736 25.6409C21.9252 24.5449 22.2498 21.9277 22.4026 20.5238C22.7248 20.6244 23.1397 20.6704 23.5882 20.6703C24.5237 20.6703 25.6031 20.4716 26.2801 20.1574C27.0405 19.8042 28.4128 18.9376 28.1639 18.1846V18.1846ZM23.1519 8.69828C23.145 9.11271 23.0879 9.48896 23.0275 9.88169C22.9623 10.3041 22.8951 10.7408 22.8781 11.2709C22.8614 11.7868 22.9259 12.3232 22.9881 12.8419C23.114 13.8896 23.2432 14.9683 22.7431 16.0326C22.6601 15.8854 22.5861 15.7333 22.5215 15.577C22.4594 15.4263 22.3244 15.1843 22.1375 14.8493C21.4103 13.5452 19.7075 10.4913 20.5792 9.24521C20.8388 8.8743 21.4978 8.49294 23.1519 8.69828V8.69828ZM21.1469 1.67703C23.5712 1.73055 25.4889 2.63749 26.8467 4.37249C27.888 5.70328 26.7413 11.7586 23.4217 16.9826C23.3883 16.9401 23.3547 16.8978 23.321 16.8557L23.2789 16.8032C24.1368 15.3865 23.969 13.9848 23.8197 12.742C23.7584 12.232 23.7004 11.7503 23.7152 11.2978C23.7304 10.8183 23.7938 10.4069 23.8552 10.0092C23.9305 9.51908 24.0072 9.01192 23.9861 8.41408C24.0019 8.35135 24.0082 8.27726 24 8.1893C23.946 7.61601 23.2914 5.90021 21.9573 4.34726C21.2276 3.49783 20.1634 2.54726 18.7103 1.90612C19.3353 1.77658 20.19 1.65578 21.1469 1.67703V1.67703ZM7.5812 19.9748C6.91075 20.7809 6.44779 20.6263 6.29552 20.5757C5.30347 20.2448 4.15234 18.1479 3.13745 14.8229C2.25927 11.9459 1.74609 9.05283 1.7054 8.24158C1.57722 5.67589 2.19916 3.88783 3.55404 2.92692C5.75904 1.36328 9.38427 2.29919 10.841 2.77385C10.8201 2.79453 10.7982 2.81385 10.7776 2.83487C8.38711 5.24896 8.44381 9.37351 8.44972 9.62567C8.4495 9.72294 8.45768 9.86067 8.46881 10.0501C8.50995 10.7438 8.58654 12.035 8.382 13.4971C8.192 14.8559 8.61086 16.1858 9.53097 17.1459C9.6254 17.2442 9.72465 17.3378 9.82836 17.4263C9.41881 17.865 8.5287 18.835 7.5812 19.9748V19.9748ZM10.1356 16.5665C9.39404 15.7926 9.05722 14.7162 9.21143 13.6131C9.42734 12.0685 9.34768 10.7233 9.30484 10.0006C9.29881 9.89942 9.29347 9.81078 9.2904 9.74089C9.63961 9.43124 11.2579 8.56419 12.412 8.82862C12.9386 8.94919 13.2595 9.30783 13.3929 9.92464C14.0834 13.1182 13.4843 14.4492 13.0029 15.5188C12.9037 15.7392 12.81 15.9475 12.73 16.1629L12.6679 16.3295C12.5109 16.7507 12.3647 17.1423 12.2742 17.5141C11.4857 17.5118 10.7188 17.175 10.1356 16.5663V16.5665ZM10.2567 20.8733C10.0264 20.8158 9.81938 20.7159 9.69791 20.6331C9.79938 20.5853 9.97995 20.5203 10.2931 20.4558C11.8087 20.1438 12.0428 19.9236 12.5539 19.2746C12.6711 19.1258 12.8039 18.9571 12.9879 18.7517L12.9881 18.7515C13.2621 18.4446 13.3875 18.4967 13.6147 18.591C13.7989 18.6671 13.9784 18.8981 14.0511 19.1521C14.0855 19.2721 14.1242 19.4999 13.9977 19.6771C12.93 21.1721 11.374 21.1529 10.2567 20.8733V20.8733ZM18.1884 28.2542C16.3343 28.6515 15.6778 27.7054 15.2452 26.624C14.966 25.9258 14.8287 22.7774 14.9261 19.3004C14.9273 19.2542 14.9207 19.2095 14.908 19.1675C14.8966 19.0845 14.8793 19.0024 14.8562 18.9218C14.7114 18.4159 14.3586 17.9927 13.9353 17.8173C13.7671 17.7476 13.4585 17.6198 13.0876 17.7146C13.1667 17.3887 13.3038 17.0207 13.4526 16.6221L13.515 16.4545C13.5852 16.2656 13.6734 16.0698 13.7665 15.8625C14.2703 14.7434 14.9602 13.2106 14.2114 9.74771C13.931 8.45067 12.9944 7.81726 11.5746 7.96442C10.7235 8.05249 9.94472 8.39589 9.55631 8.59283C9.47279 8.6351 9.39643 8.67601 9.32506 8.71578C9.43347 7.40896 9.84302 4.96669 11.3751 3.42146C12.3397 2.44874 13.6244 1.96828 15.1896 1.99419C18.2737 2.04464 20.2514 3.62737 21.3676 4.94635C22.3294 6.08283 22.8502 7.22771 23.058 7.84521C21.495 7.68624 20.4319 7.99476 19.893 8.76521C18.7206 10.4411 20.5344 13.6938 21.4061 15.2571C21.566 15.5436 21.7039 15.7912 21.7473 15.8965C22.0312 16.5844 22.3987 17.0437 22.667 17.379C22.7493 17.4817 22.829 17.5813 22.8897 17.6684C22.4163 17.8049 21.566 18.1202 21.6435 19.6965C21.581 20.4874 21.1365 24.1903 20.9107 25.4986C20.6127 27.227 19.9767 27.8708 18.1884 28.2543V28.2542ZM25.9275 19.3978C25.4434 19.6225 24.6332 19.791 23.8637 19.8273C23.0137 19.867 22.581 19.732 22.4792 19.649C22.4314 18.6667 22.797 18.5641 23.1839 18.4554C23.2447 18.4384 23.304 18.4217 23.3613 18.4017C23.3969 18.4307 23.4359 18.4594 23.4786 18.4876C24.1618 18.9385 25.3803 18.9871 27.1006 18.632L27.1195 18.6283C26.8875 18.8452 26.4904 19.1363 25.9275 19.3978Z" fill="white" />
    </g>
    <defs>
        <clipPath id="clip0_27_11">
            <rect width="29.1" height="30" fill="white" />
        </clipPath>
    </defs>
</svg>
    