<svg width="54" height="61" viewBox="0 0 54 61" fill="none" xmlns="http://www.w3.org/2000/svg">
    <g clip-path="url(#clip0_10_6)">
        <path d="M36.4161 50.0507C36.6352 49.4122 36.8381 48.7682 37.0248 48.1195C37.4701 48.2284 37.91 48.3288 38.3422 48.4178C45.4393 49.8798 51.1569 48.9241 53.0394 45.6595C54.8441 42.5294 52.9623 37.4104 48.463 32.2405C48.0188 31.731 47.5617 31.2328 47.0924 30.7464C47.4045 30.4208 47.7106 30.0894 48.0104 29.7524C52.8212 24.3341 54.8488 18.9032 52.9609 15.6421C51.1506 12.5148 45.7756 11.5888 39.0495 12.9051C38.3834 13.036 37.7207 13.1839 37.062 13.3485C36.8436 12.5798 36.6111 11.838 36.3636 11.128C34.1488 4.77555 30.6779 0.71875 27.0777 0.71875C23.3593 0.71875 19.6297 5.07391 17.3682 11.6903C17.1856 12.2267 17.0164 12.7676 16.8608 13.3124C16.1514 13.1355 15.4372 12.9784 14.7191 12.8413C8.1097 11.5865 2.86181 12.5664 1.06298 15.6852C-0.794674 18.9065 1.11454 24.313 5.7165 29.5773C6.09063 30.0042 6.47536 30.4217 6.87032 30.8294C6.36207 31.3561 5.8686 31.897 5.39048 32.4513C1.00251 37.5508 -0.76936 42.587 1.03439 45.7028C2.89743 48.921 8.53509 49.967 15.3941 48.6091C15.9314 48.5021 16.4661 48.3821 16.9977 48.2493C17.1102 48.629 17.2259 49.0016 17.3464 49.3649C19.6252 56.2434 23.3096 60.7188 27.0777 60.7188C30.691 60.7188 34.1853 56.5309 36.4161 50.0507ZM19.7792 48.5589C19.6707 48.2308 19.5659 47.8942 19.464 47.5511C21.868 46.7917 24.4241 45.767 27.0652 44.5129C29.6434 45.7096 32.1669 46.6949 34.5552 47.433C34.3775 48.0468 34.1902 48.6423 33.9927 49.2166C32.0811 54.7689 29.2552 58.1556 27.0777 58.1556C24.7583 58.1556 21.7473 54.498 19.7792 48.5589ZM14.8963 46.0947C11.8634 46.6952 9.12126 46.7807 6.97743 46.383C5.05111 46.0258 3.76696 45.3072 3.25251 44.4184C2.15798 42.5277 3.58064 38.4841 7.33345 34.123C7.77797 33.6075 8.23675 33.1044 8.70923 32.6144C10.5582 34.3052 12.7077 35.9948 15.095 37.6438C15.3524 40.5445 15.7733 43.2848 16.3477 45.7698C15.8665 45.8896 15.3826 45.9979 14.8963 46.0947ZM3.44165 21.1741C2.78939 19.3267 2.77064 17.8553 3.28345 16.9659C4.37494 15.0733 8.58876 14.2865 14.2409 15.3597C14.9089 15.4873 15.5731 15.6333 16.2329 15.7977C15.6892 18.2554 15.2982 20.9758 15.0624 23.8832C12.7264 25.5435 10.5793 27.2819 8.69915 29.0338C8.33889 28.6615 7.98784 28.2804 7.64634 27.8908C5.6115 25.5627 4.16775 23.23 3.44165 21.1741ZM19.7935 12.5195C20.7936 9.59383 22.0932 7.17766 23.5114 5.52156C24.7857 4.03328 26.0511 3.28211 27.0777 3.28211C29.2625 3.28211 32.0492 6.53922 33.9432 11.9718C34.1729 12.6311 34.3897 13.3211 34.5931 14.0371C32.151 14.788 29.5974 15.7729 27.0153 16.9614C24.395 15.7574 21.8007 14.7585 19.3297 14.0003C19.4722 13.503 19.6268 13.0093 19.7935 12.5195ZM39.542 15.4206C45.3045 14.293 49.6515 15.0419 50.7425 16.9265C51.9045 18.9337 50.2477 23.3723 46.0937 28.0506C45.8222 28.3557 45.5452 28.6558 45.2628 28.9509C43.3909 27.2076 41.2597 25.4852 38.9375 23.8396C38.676 21.0177 38.256 18.3166 37.6932 15.8331C38.3058 15.6801 38.9222 15.5426 39.5417 15.4206H39.542ZM33.151 41.302C34.1643 40.7154 35.1647 40.107 36.1517 39.4773C35.9096 41.3917 35.5883 43.2259 35.1955 44.9484C33.538 44.4313 31.8052 43.7868 30.0287 43.0281C31.0809 42.4736 32.1218 41.8981 33.151 41.302ZM43.431 30.7476C42.1501 31.9298 40.7202 33.1138 39.1686 34.2784C39.2802 31.9159 39.2807 29.5495 39.17 27.187C40.7073 28.3527 42.1353 29.5469 43.431 30.7476ZM33.1335 20.1255C32.1126 19.5368 31.0781 18.972 30.0308 18.4316C31.801 17.6854 33.5417 17.0467 35.2227 16.5252C35.6056 18.2371 35.9188 20.0627 36.1564 21.9648C35.1634 21.3281 34.1555 20.7149 33.1337 20.1255H33.1335ZM17.8166 22.0195C18.0359 20.0542 18.3329 18.2013 18.7056 16.4898C20.4165 17.0195 22.1942 17.6723 24.0024 18.4347C22.9544 18.9772 21.9193 19.5443 20.8979 20.1355C19.8479 20.7435 18.8195 21.373 17.8166 22.0195ZM10.5439 30.8184C11.8545 29.6034 13.3046 28.3916 14.8642 27.2083C14.8192 28.3572 14.7962 29.5284 14.7962 30.7188C14.7962 31.9417 14.8236 33.1506 14.8766 34.3405C13.2889 33.1722 11.8367 31.9926 10.5439 30.8184ZM24.0948 43.0523C22.2667 43.8543 20.4983 44.5302 18.8167 45.067C18.4196 43.3274 18.0999 41.4491 17.8625 39.4701C18.8679 40.1042 19.8857 40.7183 20.9155 41.312C21.9622 41.9156 23.0222 42.4958 24.0948 43.0523ZM22.1961 39.0918C20.6173 38.1829 19.0684 37.223 17.552 36.2134C17.4225 34.3847 17.3581 32.552 17.3591 30.7188C17.3591 28.8515 17.4172 27.0353 17.5306 25.2864C19.0436 24.2505 20.5951 23.2722 22.182 22.3537V22.3539C23.7605 21.4397 25.3732 20.5857 27.0165 19.7938C28.6602 20.5837 30.2736 21.435 31.8533 22.3462L31.8531 22.3459C33.4332 23.2567 34.9781 24.2272 36.4845 25.2552C36.6195 27.0395 36.6899 28.8693 36.6899 30.7185V30.7188C36.6899 32.5764 36.6188 34.4085 36.4829 36.1923C34.9787 37.21 33.4391 38.1743 31.8669 39.0834C30.2907 39.9975 28.6851 40.8602 27.0528 41.6699C25.4038 40.8685 23.7839 40.0086 22.1961 39.0918ZM50.8189 44.3793C49.6602 46.3884 44.9874 47.1698 38.8597 45.9074C38.4688 45.8268 38.0706 45.7363 37.6667 45.6379C38.2414 43.1484 38.6687 40.4453 38.9342 37.6152C41.282 35.9666 43.4164 34.2583 45.2642 32.5434C45.6975 32.9928 46.1195 33.4529 46.5299 33.9234C50.3846 38.353 51.9067 42.493 50.8189 44.3793ZM32.4355 30.7188C32.4355 33.6777 30.0367 36.0766 27.0777 36.0766C24.1187 36.0766 21.7199 33.6777 21.7199 30.7188C21.7199 27.7598 24.1187 25.3609 27.0777 25.3609C30.0367 25.3609 32.4355 27.7598 32.4355 30.7188Z" fill="#00D8FF" />
    </g>
    <defs>
        <clipPath id="clip0_10_6">
            <rect width="60" height="53.4375" fill="white" transform="translate(53.7188 0.71875) rotate(90)" />
        </clipPath>
    </defs>
</svg>
    