<svg width="31" height="30" viewBox="0 0 31 30" fill="none" xmlns="http://www.w3.org/2000/svg">
    <path d="M24.5781 16.4737C23.7538 16.4748 22.9405 16.6633 22.1997 17.025C21.9678 16.6401 21.7887 16.2258 21.6672 15.7931C21.5974 15.454 21.5813 15.106 21.6194 14.7619C21.6995 14.3832 21.8035 14.0099 21.9306 13.6444C21.9259 13.5966 21.8734 13.3706 21.3456 13.3631C20.8178 13.3556 20.3631 13.4634 20.3144 13.6031C20.2227 13.8583 20.1491 14.1195 20.0941 14.385C19.6572 15.4627 19.1195 16.4966 18.4881 17.4731C18.1344 16.8932 17.9889 16.21 18.0756 15.5362C18.1558 15.1576 18.2597 14.7843 18.3869 14.4187C18.3822 14.3709 18.3297 14.145 17.8019 14.1375C17.2741 14.13 16.8194 14.2378 16.7706 14.3775C16.7219 14.5172 16.66 14.8462 16.5503 15.1594C16.4406 15.4725 15.16 18.3337 14.8244 19.0716C14.6519 19.4466 14.5028 19.7522 14.3978 19.9584C14.3928 19.9718 14.3866 19.9847 14.3791 19.9969L14.2356 20.2706V20.2753C14.1634 20.4047 14.0866 20.5247 14.0481 20.5247C13.9811 20.2568 13.9843 19.9762 14.0575 19.71C14.245 18.7172 14.7044 17.1741 14.6997 17.1206C14.6997 17.0916 14.7859 16.8234 14.4025 16.6847C14.3136 16.6424 14.2137 16.6287 14.1167 16.6454C14.0196 16.6622 13.9302 16.7087 13.8606 16.7784C13.8269 16.7784 13.8034 16.86 13.8034 16.86C13.8034 16.86 14.2206 15.1247 13.0075 15.1247C12.5351 15.2197 12.0865 15.4082 11.688 15.6792C11.2895 15.9502 10.9492 16.2981 10.6872 16.7025C10.3609 16.8797 9.66626 17.2584 8.92282 17.6662C8.64157 17.8247 8.3472 17.9831 8.07438 18.135C8.05563 18.1162 8.03595 18.0919 8.0172 18.0731C6.54063 16.5 3.82657 15.39 3.94376 13.2853C3.98688 12.5184 4.25032 10.5047 9.15532 8.05874C13.1922 6.06937 16.405 6.62062 16.9609 7.84312C17.7569 9.58874 15.2397 12.8297 11.0688 13.2994C10.6073 13.393 10.1308 13.3817 9.67428 13.2663C9.21781 13.1509 8.7931 12.9344 8.43157 12.6328C8.21126 12.3928 8.17751 12.3787 8.09595 12.4266C7.96189 12.4987 8.04814 12.7144 8.09595 12.8391C8.25506 13.127 8.47028 13.3802 8.72888 13.5835C8.98748 13.7869 9.28423 13.9364 9.60157 14.0231C11.2424 14.3777 12.9532 14.2082 14.4925 13.5384C17.0238 12.5606 18.9925 9.84187 18.415 7.56468C17.8347 5.25375 13.9994 4.49156 10.3694 5.78343C8.09571 6.5485 5.99485 7.75359 4.18657 9.32999C2.18689 11.2003 1.87095 12.825 2.00032 13.5066C2.46907 15.9234 5.79814 17.4956 7.13032 18.6628C7.07013 18.697 7.0095 18.7305 6.94845 18.7631C6.28188 19.0941 3.74126 20.4225 3.1047 21.8269C2.38563 23.4206 3.22001 24.5597 3.77126 24.7134C4.60189 24.9123 5.47388 24.8468 6.26549 24.5261C7.0571 24.2054 7.72882 23.6456 8.18689 22.9247C8.57694 22.3268 8.81671 21.6434 8.88575 20.9329C8.9548 20.2223 8.85109 19.5056 8.58345 18.8437C8.57893 18.833 8.57258 18.8232 8.5647 18.8147L9.08689 18.5081C9.40418 18.3206 9.72551 18.1399 10.0506 17.9662C9.85547 18.5292 9.7409 19.1169 9.71032 19.7119C9.64406 20.6238 9.92315 21.5274 10.4922 22.2431C10.5788 22.3177 10.6793 22.3743 10.7879 22.4097C10.8966 22.4451 11.0111 22.4586 11.125 22.4494C11.6875 22.4494 11.9453 21.9806 12.2275 21.4237C12.5725 20.7431 12.8838 19.9519 12.8838 19.9519C12.8838 19.9519 12.4956 22.0903 13.5503 22.0903C13.9338 22.0903 14.3219 21.5916 14.4953 21.3403V21.345L14.5244 21.2972L14.5863 21.1969V21.1875C14.74 20.9194 15.085 20.31 15.5978 19.2984C16.2597 17.9944 16.8972 16.3641 16.8972 16.3641C16.9587 16.7223 17.0436 17.0762 17.1513 17.4234C17.3057 17.8443 17.4883 18.2543 17.6978 18.6506C17.5441 18.8662 17.4484 18.9862 17.4484 18.9862L17.4531 18.9909C17.3284 19.1541 17.1944 19.3312 17.0453 19.5037C16.6018 19.9913 16.1903 20.5071 15.8134 21.0478C15.7574 21.1386 15.7382 21.2474 15.7596 21.3519C15.7811 21.4564 15.8415 21.5488 15.9288 21.6103C16.1261 21.713 16.3511 21.7501 16.5709 21.7162C16.9023 21.6975 17.2281 21.6231 17.5347 21.4959C17.831 21.3917 18.1105 21.2448 18.3644 21.06C18.6262 20.8786 18.8369 20.633 18.9763 20.3466C19.1157 20.0603 19.179 19.7429 19.1603 19.425C19.1308 19.0245 19.0285 18.6328 18.8584 18.2691C18.9063 18.2016 18.9522 18.135 18.9972 18.0675C19.5302 17.2719 20.0106 16.4423 20.4353 15.5841C20.4968 15.9423 20.5817 16.2962 20.6894 16.6434C20.8167 17.0071 20.9735 17.3599 21.1581 17.6981C20.545 18.1699 20.062 18.79 19.7547 19.5C19.4528 20.3728 19.6872 20.7656 20.1297 20.8566C20.3718 20.8732 20.6139 20.8237 20.83 20.7131C21.1477 20.6087 21.447 20.455 21.7169 20.2575C22.0015 20.0895 22.2398 19.8535 22.4105 19.5705C22.5812 19.2876 22.6789 18.9666 22.6947 18.6366C22.6734 18.3071 22.599 17.9832 22.4744 17.6775C23.2835 17.3614 24.1609 17.2606 25.0206 17.385C27.3025 17.6531 27.7534 19.0772 27.6672 19.6772C27.6267 19.8899 27.5412 20.0915 27.4164 20.2684C27.2916 20.4453 27.1303 20.5934 26.9434 20.7028C26.785 20.8031 26.7325 20.8369 26.7466 20.9091C26.7653 21.015 26.8403 21.0094 26.9763 20.9906C27.3202 20.8837 27.6236 20.6751 27.8465 20.3922C28.0695 20.1094 28.2014 19.7656 28.225 19.4062C28.2972 18 26.9547 16.4578 24.5809 16.4719L24.5781 16.4737ZM6.97188 22.4062C6.21438 23.2312 5.1597 23.5425 4.70407 23.2791C4.2147 22.9978 4.40689 21.7791 5.33689 20.9053C5.88856 20.4087 6.48483 19.964 7.11814 19.5769C7.22876 19.5094 7.39189 19.4137 7.58689 19.2956L7.63938 19.2666L7.7547 19.1944C7.92085 19.7511 7.93591 20.3419 7.79835 20.9063C7.66078 21.4708 7.37554 21.9884 6.97188 22.4062V22.4062ZM12.4853 18.6562C12.2219 19.2984 11.6706 20.9437 11.335 20.8519C11.0472 20.775 10.8663 19.5281 11.2778 18.2962C11.4856 17.7032 11.7883 17.1479 12.1741 16.6519C12.5866 16.1916 13.0422 16.0378 13.1519 16.2253C13.0518 17.0643 12.8272 17.8836 12.4853 18.6562V18.6562ZM17.035 20.8331C16.9244 20.8903 16.8194 20.9269 16.7716 20.9006C16.7378 20.8819 16.8194 20.8069 16.8194 20.8069C16.8194 20.8069 17.3903 20.1928 17.6153 19.9153C17.7447 19.7522 17.8966 19.5609 18.0616 19.3444V19.4062C18.0616 20.1394 17.3519 20.6334 17.0359 20.835L17.035 20.8331ZM20.545 20.0325C20.4634 19.9753 20.4775 19.7831 20.7513 19.1841C20.9416 18.7993 21.2075 18.4569 21.5331 18.1772C21.583 18.3191 21.609 18.4683 21.61 18.6187C21.6137 18.9389 21.5113 19.2514 21.3188 19.5073C21.1264 19.7632 20.8546 19.9482 20.5459 20.0334L20.545 20.0325Z" fill="#CD6799" />
</svg>
    