<svg width="30" height="30" viewBox="0 0 30 30" fill="none" xmlns="http://www.w3.org/2000/svg">
    <g clip-path="url(#clip0_27_8)">
        <path d="M4.56378 4.20458C10.4911 -1.53749 19.9685 -1.38315 25.7106 4.57501C26.3589 3.71063 26.9146 2.75368 27.316 1.76579C29.1992 7.50786 30.3414 12.3238 29.9091 16.0591C29.693 19.208 28.4582 22.2334 26.4207 24.6414C21.1109 30.9391 11.6642 31.7418 5.3664 26.432L5.24593 26.3248L5.23949 26.3206C5.21967 26.3067 5.20021 26.2924 5.18113 26.2775C5.12371 26.2329 5.07156 26.1843 5.02456 26.1322L5.00769 26.113L4.81081 25.9381C4.61863 25.7734 4.42656 25.6088 4.25617 25.4224L4.19335 25.3514C-1.54883 19.4241 -1.36356 9.94665 4.56367 4.20458H4.56378ZM6.78636 24.3019C6.23066 23.8697 5.42804 23.9313 4.99574 24.487C4.61581 24.9757 4.61769 25.6553 5.00148 26.106L5.00757 26.113L5.24581 26.3248L5.26925 26.3407C5.80878 26.6956 6.53488 26.6222 6.9489 26.1206L6.97163 26.0924C7.40382 25.5367 7.31124 24.7341 6.78648 24.3018L6.78636 24.3019ZM27.1618 3.30927C25.618 6.55079 21.7899 9.02052 18.4867 9.79231C15.3687 10.5332 12.6519 9.91583 9.78097 11.0271C3.23628 13.5278 3.3598 21.3073 6.94081 23.067L7.15691 23.1905C7.15691 23.1905 9.7437 22.6761 12.3017 21.9969L12.5208 21.9383C13.5425 21.6629 14.5476 21.3629 15.3687 21.0604C19.6289 19.4859 24.3215 15.5961 25.865 11.0889C25.0623 15.7813 21.0182 20.3194 16.9739 22.3879C14.813 23.4991 13.146 23.7461 9.59581 24.981C9.16363 25.1353 8.82402 25.2898 8.82402 25.2898L8.95386 25.2722L9.04011 25.2611L9.12601 25.2503C9.90999 25.153 10.6145 25.1045 10.6145 25.1045C15.6466 24.8575 23.5497 26.5246 27.2234 21.6161C30.9897 16.6149 28.8904 8.52657 27.1616 3.30927H27.1618Z" fill="#6DB33F" />
        <path d="M6.78632 24.3019C7.31121 24.7341 7.40378 25.5367 6.97148 26.0924C6.53941 26.6481 5.73668 26.7099 5.18097 26.2775C4.62539 25.8454 4.56363 25.0427 4.99582 24.487C5.428 23.9313 6.23062 23.8697 6.78644 24.3019H6.78632ZM27.1616 3.30927C28.8903 8.52657 30.9896 16.6149 27.2234 21.6161C23.5495 26.5246 15.6465 24.8575 10.6145 25.1045C10.6145 25.1045 9.90996 25.1531 9.12597 25.2503L9.04007 25.2611C8.96835 25.2702 8.89617 25.2798 8.82398 25.2898C8.82398 25.2898 9.16359 25.1353 9.59578 24.981C13.146 23.7462 14.813 23.4991 16.9739 22.3879C21.0182 20.3195 25.0623 15.7813 25.8649 11.0889C24.3214 15.5961 19.6289 19.4859 15.3687 21.0604C12.4359 22.1408 7.15687 23.1905 7.15687 23.1905L6.94078 23.067C3.35976 21.3073 3.23625 13.5278 9.78093 11.0271C12.652 9.91583 15.3687 10.5332 18.4868 9.79231C21.79 9.02051 25.618 6.55091 27.1616 3.30927V3.30927Z" fill="white" />
    </g>
    <defs>
        <clipPath id="clip0_27_8">
            <rect width="30" height="30" fill="white" />
        </clipPath>
    </defs>
</svg>
    