<svg width="40" height="40" viewBox="0 0 40 40" fill="none" xmlns="http://www.w3.org/2000/svg">
    <path d="M28.99 4.05249H7.02873C6.31955 4.05447 5.63999 4.33707 5.13852 4.83853C4.63705 5.34 4.35446 6.01956 4.35248 6.72874V30.9487C4.35446 31.6579 4.63705 32.3375 5.13852 32.8389C5.63999 33.3404 6.31955 33.623 7.02873 33.625H21.4937C21.3287 26.4275 23.7875 12.46 28.99 4.05249V4.05249Z" fill="#0F80CC" />
    <path d="M28.1925 4.83374H7.02873C6.52635 4.8344 6.04473 5.03427 5.68949 5.3895C5.33425 5.74474 5.13439 6.22636 5.13373 6.72874V29.1812C10.5633 27.1334 16.2947 25.9997 22.095 25.8262C23.6291 18.6935 25.6667 11.6784 28.1925 4.83374V4.83374Z" fill="url(#paint0_linear_29_6)" />
    <path d="M34.1125 3.26001C32.6125 1.91876 30.7875 2.45751 28.9875 4.05251C28.7213 4.29001 28.455 4.55251 28.19 4.83376C24.8039 8.83847 22.4625 13.6196 21.375 18.75C21.7107 19.4824 21.9761 20.245 22.1675 21.0275C22.2125 21.2025 22.2538 21.3675 22.2925 21.5075C22.37 21.8388 22.4175 22.0538 22.4175 22.0538C22.4175 22.0538 22.39 21.95 22.2763 21.6213L22.2025 21.4088C22.1877 21.3692 22.1718 21.33 22.155 21.2913C21.955 20.825 21.405 19.8413 21.155 19.4163C20.9463 20.0325 20.7613 20.6088 20.6075 21.13C21.1265 22.2463 21.5077 23.4216 21.7425 24.63C21.7425 24.63 21.705 24.4863 21.5288 23.9863C21.1901 23.256 20.8146 22.5434 20.4038 21.8513C20.1381 22.537 20.0254 23.2725 20.0738 24.0063C20.3491 24.5551 20.5561 25.1357 20.69 25.735C21.1075 27.3388 21.3975 29.2925 21.3975 29.2925L21.4225 29.6213C21.3676 30.9571 21.3948 32.295 21.5038 33.6275C21.5657 34.9468 21.8115 36.2511 22.2338 37.5025L22.4588 37.3775C21.935 35.4966 21.733 33.5407 21.8613 31.5925C22.0966 27.4622 22.9121 23.3855 24.2838 19.4825C26.7963 12.8475 30.2838 7.52251 33.4713 4.98251C30.5638 7.60751 26.6288 16.1075 25.45 19.255C24.2088 22.4957 23.2657 25.8429 22.6325 29.255C23.3861 27.3508 24.8616 25.8214 26.7375 25C26.7375 25 28.2788 23.0988 30.08 20.3838C28.9163 20.6265 27.7667 20.9323 26.6363 21.3C25.7613 21.6675 25.525 21.7925 25.525 21.7925C27.1954 20.7866 28.96 19.9464 30.7938 19.2838C34.1388 14.015 37.7838 6.53376 34.1138 3.25376" fill="#003B57" />
    <defs>
        <linearGradient id="paint0_linear_29_6" x1="16.6363" y1="5.38306" x2="16.6363" y2="27.8813" gradientUnits="userSpaceOnUse">
            <stop stop-color="#97D9F6" />
            <stop offset="0.92" stop-color="#0F80CC" />
            <stop offset="1" stop-color="#0F80CC" />
        </linearGradient>
    </defs>
</svg>
    