<svg width="40" height="40" viewBox="0 0 40 40" fill="none" xmlns="http://www.w3.org/2000/svg">
    <g clip-path="url(#clip0_24_9)">
        <path d="M34.0817 34.0823H28.155V24.8006C28.155 22.5873 28.1154 19.7381 25.0725 19.7381C21.9856 19.7381 21.5133 22.1497 21.5133 24.6395V34.0817H15.5867V14.9949H21.2762V17.6033H21.3559C21.9253 16.6297 22.7481 15.8288 23.7367 15.2858C24.7252 14.7429 25.8426 14.4782 26.9697 14.52C32.9767 14.52 34.0842 18.4713 34.0842 23.6116L34.0817 34.0823V34.0823ZM8.89919 12.3859C6.99966 12.3863 5.4595 10.8466 5.45919 8.94704C5.45888 7.04751 6.99841 5.50735 8.89794 5.50704C10.7975 5.50657 12.3376 7.04626 12.3379 8.94579C12.3381 9.85798 11.9759 10.7329 11.331 11.378C10.6861 12.0232 9.81139 12.3857 8.89919 12.3859M11.8626 34.0825H5.92966V14.9949H11.8625V34.0823L11.8626 34.0825ZM37.0364 0.00281968H2.95154C1.3406 -0.0153053 0.0195044 1.27516 -0.000183105 2.8861V37.1131C0.0188794 38.7249 1.33982 40.0166 2.95138 39.9997H37.0364C38.6514 40.0197 39.9775 38.728 39.9998 37.1131V2.88344C39.9768 1.26938 38.6506 -0.0209303 37.0364 0.00016343" fill="#0A66C2" />
    </g>
    <defs>
        <clipPath id="clip0_24_9">
            <rect width="40" height="40" fill="white" />
        </clipPath>
    </defs>
</svg>
    